<svg xmlns="http://www.w3.org/2000/svg" xmlns:xlink="http://www.w3.org/1999/xlink" width="160" zoomAndPan="magnify" viewBox="0 0 120 30.000001" height="40" preserveAspectRatio="xMidYMid meet" version="1.0"><defs><g/><clipPath id="id1"><path d="M 97 2 L 114 2 L 114 29.03125 L 97 29.03125 Z M 97 2 " clip-rule="nonzero"/></clipPath><clipPath id="id2"><path d="M 104.539062 -0.878906 L 119.597656 6.328125 L 108.316406 29.894531 L 93.257812 22.6875 Z M 104.539062 -0.878906 " clip-rule="nonzero"/></clipPath><clipPath id="id3"><path d="M 104.539062 -0.878906 L 119.597656 6.328125 L 108.316406 29.894531 L 93.257812 22.6875 Z M 104.539062 -0.878906 " clip-rule="nonzero"/></clipPath><clipPath id="id4"><path d="M 98 20 L 100 20 L 100 21 L 98 21 Z M 98 20 " clip-rule="nonzero"/></clipPath><clipPath id="id5"><path d="M 104.539062 -0.878906 L 119.597656 6.328125 L 108.316406 29.894531 L 93.257812 22.6875 Z M 104.539062 -0.878906 " clip-rule="nonzero"/></clipPath><clipPath id="id6"><path d="M 104.539062 -0.878906 L 119.597656 6.328125 L 108.316406 29.894531 L 93.257812 22.6875 Z M 104.539062 -0.878906 " clip-rule="nonzero"/></clipPath></defs><g clip-path="url(#id1)"><g clip-path="url(#id2)"><g clip-path="url(#id3)"><path fill="#d9d9d9" d="M 111.113281 23.203125 C 111.058594 23.320312 110.96875 23.390625 110.851562 23.4375 C 110 23.777344 109.148438 24.117188 108.238281 24.277344 C 107.6875 24.375 107.164062 24.582031 106.652344 24.808594 C 106.558594 24.847656 106.476562 24.914062 106.386719 24.960938 C 106.242188 25.035156 106.210938 25.152344 106.21875 25.304688 C 106.226562 25.558594 106.304688 25.808594 106.3125 26.058594 C 106.324219 26.347656 106.355469 26.636719 106.402344 26.921875 C 106.492188 27.492188 106.585938 28.066406 106.757812 28.617188 C 106.804688 28.765625 106.820312 28.917969 106.804688 29.070312 C 106.8125 29.125 106.789062 29.144531 106.734375 29.128906 C 106.707031 29.121094 106.664062 29.105469 106.660156 29.082031 C 106.546875 28.636719 106.4375 28.191406 106.335938 27.746094 C 106.222656 27.265625 106.140625 26.78125 106.085938 26.289062 C 106.066406 26.136719 106.019531 26.109375 105.847656 26.082031 C 105.664062 26.054688 105.480469 26.050781 105.292969 26.070312 C 104.632812 26.132812 103.976562 26.144531 103.332031 25.972656 C 103.105469 25.914062 102.863281 25.902344 102.636719 25.839844 C 102.164062 25.710938 101.71875 25.535156 101.308594 25.25 C 101.058594 25.074219 100.8125 24.898438 100.5625 24.730469 C 100.386719 24.613281 100.265625 24.453125 100.207031 24.25 C 100.183594 24.183594 100.230469 24.105469 100.300781 24.113281 C 101.035156 24.195312 101.75 24.019531 102.46875 23.9375 C 102.855469 23.894531 103.238281 23.808594 103.628906 23.871094 C 103.765625 23.894531 103.898438 23.910156 104.019531 23.96875 C 104.371094 24.136719 104.722656 24.292969 105.015625 24.5625 C 105.234375 24.769531 105.480469 24.949219 105.714844 25.140625 C 105.742188 25.160156 105.773438 25.167969 105.804688 25.160156 C 105.875 25.144531 105.851562 25.085938 105.839844 25.042969 C 105.726562 24.542969 105.558594 24.0625 105.386719 23.582031 C 105.265625 23.246094 105.125 22.917969 105.003906 22.582031 C 104.816406 22.050781 104.554688 21.554688 104.285156 21.066406 C 104.128906 20.785156 103.972656 20.5 103.84375 20.207031 C 103.785156 20.078125 103.671875 20.035156 103.546875 20.089844 C 103.4375 20.132812 103.332031 20.191406 103.234375 20.257812 C 102.96875 20.445312 102.707031 20.632812 102.453125 20.835938 C 102.089844 21.132812 101.683594 21.339844 101.222656 21.421875 C 100.957031 21.46875 100.707031 21.597656 100.429688 21.59375 C 100.125 21.589844 99.820312 21.605469 99.519531 21.582031 C 98.929688 21.535156 98.355469 21.40625 97.78125 21.273438 C 97.585938 21.230469 97.464844 21.097656 97.347656 20.957031 C 97.339844 20.949219 97.367188 20.902344 97.386719 20.878906 C 97.398438 20.863281 97.414062 20.859375 97.433594 20.859375 C 97.769531 20.867188 98.105469 20.8125 98.433594 20.742188 C 98.460938 20.734375 98.496094 20.765625 98.527344 20.777344 L 98.527344 20.789062 C 98.488281 20.816406 98.453125 20.855469 98.410156 20.867188 C 98.265625 20.910156 98.117188 20.945312 97.972656 20.984375 C 97.925781 20.996094 97.910156 21.015625 97.941406 21.042969 C 97.964844 21.066406 98 21.09375 98.027344 21.089844 C 98.445312 21.058594 98.847656 20.972656 99.21875 20.753906 C 99.246094 20.734375 99.269531 20.707031 99.289062 20.679688 L 99.566406 20.5 C 99.601562 20.40625 99.625 20.300781 99.730469 20.253906 C 100.289062 20.007812 100.835938 19.726562 101.421875 19.535156 C 101.832031 19.402344 102.25 19.367188 102.675781 19.425781 C 102.90625 19.457031 103.136719 19.488281 103.398438 19.523438 C 103.222656 19.121094 102.996094 18.78125 102.757812 18.457031 C 102.597656 18.238281 102.464844 18 102.234375 17.84375 C 102.164062 17.792969 102.109375 17.742188 102.019531 17.71875 C 101.636719 17.625 101.292969 17.453125 100.984375 17.210938 C 100.945312 17.175781 100.902344 17.148438 100.859375 17.128906 C 100.382812 16.898438 100.078125 16.5 99.8125 16.058594 C 99.527344 15.589844 99.335938 15.085938 99.238281 14.542969 C 99.160156 14.121094 99.078125 13.707031 99.054688 13.277344 C 99.027344 12.796875 98.878906 12.34375 98.789062 11.875 C 98.773438 11.789062 98.734375 11.710938 98.726562 11.625 C 98.710938 11.527344 98.707031 11.425781 98.714844 11.324219 C 98.71875 11.277344 98.933594 11.34375 99.03125 11.433594 C 99.066406 11.46875 99.101562 11.503906 99.132812 11.542969 C 99.824219 12.402344 100.554688 13.226562 101.167969 14.136719 C 101.539062 14.683594 101.875 15.253906 102.035156 15.914062 C 102.121094 16.277344 102.234375 16.632812 102.332031 16.996094 C 102.445312 17.417969 102.605469 17.820312 102.878906 18.183594 C 103.398438 18.878906 103.847656 19.613281 104.226562 20.394531 C 104.328125 20.609375 104.425781 20.828125 104.546875 21.035156 C 105.074219 21.949219 105.425781 22.945312 105.777344 23.9375 C 105.800781 24 105.828125 24.0625 105.851562 24.125 C 105.921875 24.101562 105.921875 24.050781 105.917969 23.996094 C 105.910156 23.65625 105.910156 23.3125 105.890625 22.972656 C 105.875 22.648438 105.875 22.324219 105.894531 22 C 105.917969 21.558594 105.914062 21.113281 105.929688 20.667969 C 105.945312 20.226562 105.964844 19.78125 106.050781 19.34375 C 106.070312 19.246094 106.0625 19.128906 105.90625 19.132812 C 105.6875 18.953125 105.472656 18.765625 105.242188 18.59375 C 104.621094 18.132812 104.148438 17.539062 103.800781 16.851562 C 103.539062 16.332031 103.382812 15.777344 103.332031 15.191406 C 103.3125 14.984375 103.304688 14.78125 103.292969 14.578125 C 103.285156 14.457031 103.261719 14.335938 103.277344 14.21875 C 103.339844 13.65625 103.34375 13.097656 103.324219 12.535156 C 103.320312 12.441406 103.421875 12.390625 103.5 12.429688 C 103.644531 12.503906 103.746094 12.609375 103.816406 12.753906 C 104.070312 13.277344 104.425781 13.730469 104.769531 14.1875 C 104.984375 14.476562 105.097656 14.820312 105.242188 15.144531 C 105.578125 15.917969 105.703125 16.742188 105.734375 17.582031 C 105.742188 17.820312 105.777344 18.058594 105.789062 18.296875 C 105.796875 18.4375 105.84375 18.5625 105.902344 18.683594 C 105.960938 18.808594 106.03125 18.871094 106.066406 18.835938 C 106.117188 18.777344 106.097656 18.710938 106.109375 18.644531 C 106.230469 17.9375 106.355469 17.230469 106.480469 16.527344 C 106.574219 16.023438 106.691406 15.523438 106.867188 15.039062 C 106.933594 14.863281 106.972656 14.679688 107.019531 14.496094 C 107.148438 14.035156 107.269531 13.574219 107.46875 13.132812 C 107.496094 13.070312 107.523438 13.003906 107.527344 12.9375 C 107.535156 12.722656 107.632812 12.542969 107.722656 12.359375 C 107.792969 12.210938 107.792969 12.210938 107.628906 12.082031 C 107.589844 12.050781 107.554688 12.015625 107.519531 11.976562 C 107.351562 11.8125 107.15625 11.707031 106.921875 11.628906 C 106.550781 11.507812 106.1875 11.386719 105.800781 11.324219 C 105.703125 11.304688 105.609375 11.261719 105.515625 11.222656 C 105.207031 11.082031 104.90625 10.933594 104.59375 10.800781 C 104.261719 10.660156 103.988281 10.441406 103.777344 10.144531 C 103.605469 9.914062 103.417969 9.695312 103.238281 9.476562 C 102.992188 9.175781 103.011719 8.808594 102.980469 8.457031 C 102.976562 8.390625 103.058594 8.351562 103.125 8.332031 C 103.214844 8.304688 103.292969 8.332031 103.371094 8.367188 C 104.101562 8.6875 104.871094 8.867188 105.660156 8.984375 C 106.109375 9.050781 106.492188 9.222656 106.828125 9.53125 C 107.027344 9.710938 107.246094 9.875 107.410156 10.09375 C 107.660156 10.417969 107.835938 10.785156 107.9375 11.1875 C 107.957031 11.265625 107.988281 11.34375 108.023438 11.421875 C 108.035156 11.445312 108.066406 11.464844 108.09375 11.476562 C 108.101562 11.480469 108.125 11.460938 108.132812 11.449219 C 108.152344 11.417969 108.167969 11.390625 108.183594 11.359375 C 108.417969 10.734375 108.644531 10.105469 108.882812 9.484375 C 108.941406 9.335938 108.945312 9.183594 108.9375 9.03125 C 108.929688 8.84375 108.921875 8.65625 108.902344 8.46875 C 108.84375 7.941406 108.972656 7.449219 109.191406 6.976562 C 109.375 6.570312 109.558594 6.164062 109.832031 5.804688 C 109.878906 5.734375 109.917969 5.660156 109.953125 5.578125 C 110.25 4.941406 110.71875 4.449219 111.277344 4.046875 C 111.625 3.796875 111.96875 3.542969 112.238281 3.207031 C 112.296875 3.144531 112.359375 3.085938 112.429688 3.035156 C 112.46875 3.007812 112.519531 2.980469 112.558594 2.980469 C 112.617188 2.988281 112.625 3.046875 112.621094 3.097656 C 112.605469 3.355469 112.59375 3.613281 112.558594 3.863281 C 112.523438 4.117188 112.460938 4.367188 112.40625 4.617188 C 112.332031 4.988281 112.234375 5.347656 112.058594 5.6875 C 111.910156 5.976562 111.785156 6.28125 111.632812 6.566406 C 111.355469 7.085938 111.015625 7.546875 110.539062 7.90625 C 110.171875 8.183594 109.8125 8.46875 109.503906 8.820312 C 109.398438 8.9375 109.300781 9.050781 109.238281 9.191406 C 109.042969 9.644531 108.808594 10.082031 108.6875 10.5625 C 108.652344 10.710938 108.578125 10.851562 108.523438 10.996094 C 108.492188 11.074219 108.464844 11.15625 108.441406 11.238281 C 108.4375 11.273438 108.449219 11.304688 108.472656 11.328125 C 108.496094 11.34375 108.523438 11.34375 108.550781 11.328125 C 108.902344 11.039062 109.335938 10.925781 109.75 10.769531 C 109.910156 10.707031 110.078125 10.691406 110.246094 10.675781 C 111.007812 10.617188 111.765625 10.554688 112.523438 10.488281 C 112.832031 10.460938 113.128906 10.394531 113.417969 10.289062 C 113.507812 10.257812 113.578125 10.328125 113.550781 10.433594 C 113.527344 10.511719 113.511719 10.605469 113.460938 10.667969 C 113.1875 11.019531 112.925781 11.378906 112.507812 11.578125 C 112.386719 11.632812 112.277344 11.722656 112.171875 11.808594 C 111.808594 12.113281 111.394531 12.289062 110.929688 12.367188 C 110.378906 12.464844 109.824219 12.507812 109.265625 12.546875 C 109.03125 12.566406 108.792969 12.578125 108.554688 12.589844 C 108.3125 12.597656 108.144531 12.820312 107.902344 12.84375 C 107.835938 12.851562 107.789062 12.910156 107.761719 12.980469 C 107.664062 13.234375 107.539062 13.472656 107.480469 13.75 C 107.40625 14.097656 107.257812 14.429688 107.15625 14.773438 C 106.976562 15.378906 106.792969 15.984375 106.703125 16.613281 C 106.699219 16.625 106.710938 16.644531 106.722656 16.65625 C 106.738281 16.6875 106.761719 16.683594 106.792969 16.644531 C 106.804688 16.632812 106.8125 16.617188 106.820312 16.601562 C 107.117188 16.183594 107.445312 15.792969 107.808594 15.429688 C 108.054688 15.179688 108.347656 15.011719 108.628906 14.820312 C 108.703125 14.773438 108.78125 14.742188 108.863281 14.726562 C 109.519531 14.589844 110.136719 14.351562 110.726562 14.039062 C 110.804688 14.003906 110.882812 13.976562 110.96875 13.964844 C 110.988281 13.960938 111.03125 13.996094 111.035156 14.019531 C 111.066406 14.15625 111.074219 14.292969 111.015625 14.421875 C 110.871094 14.75 110.746094 15.089844 110.550781 15.394531 C 110.363281 15.6875 110.085938 15.894531 109.828125 16.113281 C 109.632812 16.28125 109.421875 16.425781 109.199219 16.554688 C 108.695312 16.835938 108.195312 17.132812 107.667969 17.378906 C 107.132812 17.625 106.691406 17.996094 106.449219 18.566406 C 106.390625 18.710938 106.347656 18.855469 106.328125 19.007812 C 106.238281 19.601562 106.167969 20.191406 106.125 20.789062 C 106.105469 20.957031 106.105469 21.128906 106.125 21.296875 C 106.144531 21.46875 106.144531 21.636719 106.121094 21.808594 C 106.085938 22.132812 106.097656 22.457031 106.113281 22.78125 C 106.128906 23.105469 106.132812 23.429688 106.152344 23.753906 C 106.160156 23.886719 106.113281 24.035156 106.226562 24.148438 C 106.335938 24.039062 106.292969 23.890625 106.320312 23.761719 C 106.402344 23.304688 106.507812 22.859375 106.71875 22.4375 C 106.847656 22.179688 106.960938 21.90625 107.101562 21.652344 C 107.308594 21.28125 107.535156 20.914062 107.761719 20.550781 C 107.816406 20.46875 107.894531 20.398438 107.96875 20.328125 C 108.441406 19.882812 108.917969 19.441406 109.390625 19 C 109.59375 18.816406 109.796875 18.632812 110.003906 18.453125 C 110.042969 18.421875 110.089844 18.410156 110.140625 18.417969 C 110.207031 18.429688 110.1875 18.496094 110.171875 18.535156 C 110.007812 18.9375 109.953125 19.359375 109.890625 19.78125 C 109.828125 20.21875 109.730469 20.65625 109.523438 21.058594 C 109.476562 21.148438 109.433594 21.246094 109.371094 21.324219 C 109.203125 21.523438 109.09375 21.757812 108.984375 21.988281 C 108.9375 22.085938 108.804688 22.191406 108.910156 22.304688 C 108.984375 22.382812 109.101562 22.292969 109.199219 22.277344 C 109.296875 22.265625 109.402344 22.257812 109.5 22.226562 C 109.78125 22.140625 110.066406 22.125 110.355469 22.121094 C 110.691406 22.117188 111.035156 22.132812 111.363281 22.023438 C 111.542969 21.960938 111.691406 22.070312 111.855469 22.074219 C 111.953125 22.074219 111.941406 22.160156 111.953125 22.222656 C 111.957031 22.238281 111.957031 22.253906 111.949219 22.273438 C 111.789062 22.636719 111.605469 22.976562 111.214844 23.140625 C 111.285156 23.046875 111.347656 22.945312 111.425781 22.859375 C 111.558594 22.714844 111.660156 22.558594 111.695312 22.277344 C 111.484375 22.550781 111.328125 22.765625 111.125 22.941406 C 111.074219 22.992188 111.042969 23.046875 111.027344 23.117188 C 111.011719 23.167969 111.054688 23.203125 111.113281 23.203125 Z M 104.941406 16.324219 C 104.792969 16.183594 104.804688 15.984375 104.765625 15.804688 C 104.683594 15.460938 104.636719 15.101562 104.558594 14.757812 C 104.441406 14.25 104.214844 13.800781 103.882812 13.40625 C 103.824219 13.335938 103.765625 13.195312 103.660156 13.234375 C 103.5 13.289062 103.601562 13.441406 103.601562 13.542969 C 103.605469 13.832031 103.644531 14.121094 103.648438 14.410156 C 103.648438 15.027344 103.777344 15.625 103.886719 16.226562 C 103.921875 16.445312 103.996094 16.652344 104.109375 16.847656 C 104.382812 17.292969 104.652344 17.742188 105.03125 18.109375 C 105.140625 18.214844 105.25 18.320312 105.363281 18.417969 C 105.382812 18.4375 105.425781 18.433594 105.480469 18.449219 C 105.449219 18.34375 105.421875 18.25 105.390625 18.15625 C 105.269531 17.804688 105.128906 17.457031 105.023438 17.101562 C 104.949219 16.84375 104.871094 16.582031 104.9375 16.304688 C 105.007812 16.335938 105.027344 16.398438 105.042969 16.464844 C 105.136719 16.84375 105.210938 17.230469 105.363281 17.589844 C 105.414062 17.710938 105.414062 17.859375 105.53125 17.949219 C 105.652344 17.820312 105.589844 17.664062 105.582031 17.527344 C 105.546875 16.964844 105.511719 16.40625 105.304688 15.875 C 105.269531 15.78125 105.261719 15.675781 105.234375 15.578125 C 105.132812 15.214844 104.957031 14.890625 104.78125 14.5625 C 104.777344 14.554688 104.75 14.554688 104.738281 14.558594 C 104.722656 14.5625 104.714844 14.570312 104.710938 14.585938 C 104.714844 14.636719 104.71875 14.6875 104.730469 14.738281 C 104.792969 15.105469 104.847656 15.476562 104.960938 15.835938 C 105.015625 15.996094 105.066406 16.164062 104.941406 16.324219 Z M 108.546875 20.269531 C 108.605469 20.148438 108.699219 20.035156 108.707031 19.828125 C 108.304688 20.164062 107.972656 20.5625 107.710938 21.015625 C 107.707031 21.023438 107.71875 21.058594 107.726562 21.058594 C 107.757812 21.0625 107.800781 21.070312 107.816406 21.050781 C 107.855469 21 107.890625 20.945312 107.921875 20.886719 C 108.019531 20.699219 108.160156 20.558594 108.367188 20.503906 C 108.257812 20.65625 108.167969 20.816406 108.039062 20.960938 C 107.875 21.15625 107.730469 21.363281 107.605469 21.585938 C 107.238281 22.222656 106.960938 22.90625 106.65625 23.589844 C 106.777344 23.558594 106.851562 23.496094 106.921875 23.421875 C 107 23.332031 107.085938 23.25 107.175781 23.171875 C 107.515625 22.878906 107.894531 22.660156 108.316406 22.507812 C 108.433594 22.46875 108.523438 22.394531 108.582031 22.285156 C 108.96875 21.617188 109.257812 20.90625 109.449219 20.15625 C 109.527344 19.859375 109.613281 19.566406 109.695312 19.269531 C 109.707031 19.238281 109.722656 19.203125 109.722656 19.171875 C 109.722656 19.136719 109.710938 19.113281 109.683594 19.089844 C 109.664062 19.078125 109.609375 19.089844 109.601562 19.109375 C 109.5 19.3125 109.328125 19.453125 109.179688 19.617188 C 109.007812 19.808594 108.816406 19.980469 108.671875 20.191406 C 108.644531 20.226562 108.589844 20.246094 108.546875 20.269531 Z M 103.542969 8.835938 C 103.636719 9.085938 103.695312 9.28125 103.785156 9.460938 C 104.070312 10.039062 104.476562 10.507812 105.078125 10.753906 C 105.402344 10.886719 105.746094 10.980469 106.066406 11.132812 C 106.113281 11.15625 106.160156 11.167969 106.210938 11.175781 C 106.683594 11.238281 107.128906 11.386719 107.546875 11.609375 C 107.578125 11.628906 107.609375 11.640625 107.640625 11.644531 C 107.675781 11.648438 107.703125 11.640625 107.730469 11.621094 C 107.75 11.59375 107.757812 11.5625 107.75 11.527344 C 107.488281 10.757812 107.117188 10.066406 106.367188 9.664062 C 106.28125 9.617188 106.203125 9.546875 106.121094 9.492188 C 105.910156 9.34375 105.6875 9.234375 105.433594 9.1875 C 104.824219 9.078125 104.210938 8.960938 103.542969 8.835938 Z M 102.171875 17.363281 C 102.152344 17.285156 102.148438 17.230469 102.125 17.191406 C 101.84375 16.703125 101.648438 16.183594 101.539062 15.628906 C 101.515625 15.511719 101.484375 15.398438 101.441406 15.289062 C 101.210938 14.722656 100.945312 14.179688 100.582031 13.683594 C 100.46875 13.535156 100.320312 13.425781 100.222656 13.265625 C 100.054688 12.984375 99.78125 12.8125 99.550781 12.59375 C 99.519531 12.574219 99.492188 12.570312 99.457031 12.585938 C 99.433594 12.59375 99.414062 12.628906 99.402344 12.65625 C 99.394531 12.671875 99.394531 12.6875 99.402344 12.703125 C 99.59375 13.289062 99.558594 13.914062 99.71875 14.507812 C 99.8125 14.851562 99.894531 15.183594 100.039062 15.515625 C 100.335938 16.183594 100.871094 16.609375 101.429688 17.011719 C 101.640625 17.167969 101.894531 17.273438 102.171875 17.363281 Z M 101.988281 25.378906 C 102.128906 25.449219 102.1875 25.488281 102.25 25.507812 C 102.898438 25.691406 103.554688 25.832031 104.238281 25.761719 C 104.507812 25.734375 104.777344 25.71875 105.042969 25.679688 C 105.214844 25.648438 105.378906 25.664062 105.535156 25.730469 C 105.628906 25.769531 105.722656 25.820312 105.828125 25.785156 C 105.847656 25.777344 105.878906 25.726562 105.875 25.71875 C 105.796875 25.609375 105.71875 25.5 105.632812 25.394531 C 105.425781 25.144531 105.183594 24.933594 104.863281 24.847656 C 104.636719 24.789062 104.40625 24.730469 104.171875 24.703125 C 103.121094 24.574219 102.058594 24.550781 101.003906 24.457031 C 100.921875 24.449219 100.839844 24.425781 100.761719 24.484375 C 100.714844 24.519531 100.722656 24.5 100.917969 24.691406 C 101.253906 25.019531 101.71875 25.125 101.988281 25.378906 Z M 108.183594 12.121094 C 108.15625 12.171875 108.128906 12.222656 108.109375 12.277344 C 108.097656 12.308594 108.09375 12.339844 108.101562 12.375 C 108.105469 12.394531 108.152344 12.410156 108.175781 12.40625 C 108.355469 12.371094 108.542969 12.34375 108.71875 12.285156 C 108.914062 12.222656 109.109375 12.175781 109.3125 12.152344 C 109.867188 12.089844 110.417969 12.011719 110.972656 11.957031 C 111.761719 11.875 112.382812 11.5 112.835938 10.84375 C 112.859375 10.804688 112.859375 10.75 112.871094 10.699219 C 112.824219 10.695312 112.777344 10.683594 112.734375 10.691406 C 112.246094 10.769531 111.757812 10.789062 111.269531 10.832031 C 110.730469 10.878906 110.1875 10.902344 109.660156 11.050781 C 109.015625 11.234375 108.507812 11.601562 108.183594 12.121094 Z M 106.816406 17.675781 C 107.050781 17.460938 107.285156 17.289062 107.546875 17.1875 C 107.992188 17.007812 108.40625 16.773438 108.832031 16.5625 C 109.507812 16.230469 110.042969 15.738281 110.449219 15.105469 C 110.578125 14.90625 110.660156 14.675781 110.761719 14.460938 C 110.777344 14.433594 110.765625 14.394531 110.765625 14.359375 C 110.71875 14.363281 110.664062 14.355469 110.621094 14.378906 C 110.5625 14.40625 110.515625 14.464844 110.460938 14.5 C 110.066406 14.769531 109.664062 15.019531 109.175781 15.085938 C 109.046875 15.105469 108.921875 15.179688 108.800781 15.242188 C 108.664062 15.3125 108.542969 15.421875 108.402344 15.464844 C 108.023438 15.582031 107.75 15.820312 107.535156 16.144531 C 107.507812 16.1875 107.476562 16.230469 107.441406 16.265625 C 107.175781 16.523438 107.035156 16.855469 106.890625 17.1875 C 106.820312 17.34375 106.792969 17.503906 106.816406 17.675781 Z M 106.4375 24.53125 C 106.507812 24.515625 106.5625 24.515625 106.605469 24.492188 C 106.945312 24.300781 107.308594 24.164062 107.691406 24.085938 C 108.007812 24.019531 108.324219 23.964844 108.636719 23.890625 C 108.933594 23.824219 109.222656 23.753906 109.527344 23.722656 C 109.832031 23.691406 110.109375 23.5625 110.367188 23.386719 C 110.679688 23.171875 110.929688 22.890625 111.214844 22.648438 C 111.238281 22.625 111.257812 22.59375 111.265625 22.5625 C 111.273438 22.53125 111.273438 22.5 111.269531 22.46875 C 111.253906 22.460938 111.238281 22.460938 111.21875 22.464844 C 110.75 22.601562 110.277344 22.75 109.78125 22.730469 C 108.925781 22.691406 108.148438 22.960938 107.410156 23.367188 C 106.949219 23.617188 106.632812 24.011719 106.4375 24.53125 Z M 98.742188 21.21875 C 98.757812 21.230469 98.769531 21.238281 98.785156 21.242188 C 99.332031 21.371094 99.882812 21.417969 100.441406 21.382812 C 100.992188 21.34375 101.457031 21.132812 101.8125 20.699219 C 102.089844 20.359375 102.46875 20.164062 102.832031 19.945312 C 102.933594 19.886719 103.070312 19.898438 103.144531 19.789062 C 103.058594 19.675781 102.910156 19.664062 102.796875 19.648438 C 102.449219 19.613281 102.089844 19.574219 101.742188 19.671875 C 101.167969 19.835938 100.609375 20.03125 100.148438 20.445312 C 99.996094 20.582031 99.816406 20.675781 99.621094 20.75 C 99.320312 20.863281 99.03125 21.007812 98.742188 21.140625 C 98.726562 21.148438 98.71875 21.160156 98.71875 21.175781 C 98.71875 21.191406 98.734375 21.203125 98.742188 21.21875 Z M 109.1875 8.550781 C 109.484375 8.046875 109.828125 7.671875 110.191406 7.3125 C 110.601562 6.902344 111.019531 6.5 111.441406 6.097656 C 111.664062 5.882812 111.867188 5.65625 111.984375 5.359375 C 112.1875 4.84375 112.230469 4.300781 112.207031 3.753906 C 112.203125 3.734375 112.191406 3.722656 112.175781 3.71875 C 112.148438 3.71875 112.109375 3.722656 112.097656 3.742188 C 111.945312 3.949219 111.808594 4.167969 111.640625 4.359375 C 111.34375 4.710938 111.070312 5.082031 110.777344 5.4375 C 110.566406 5.691406 110.46875 6.011719 110.222656 6.234375 C 109.976562 6.460938 109.851562 6.765625 109.707031 7.054688 C 109.480469 7.507812 109.253906 7.964844 109.1875 8.550781 Z M 104.742188 24.609375 C 104.703125 24.503906 104.636719 24.425781 104.542969 24.371094 C 104.195312 24.160156 103.828125 24.023438 103.402344 24.023438 C 102.820312 24.019531 102.257812 24.15625 101.6875 24.226562 C 101.671875 24.230469 101.65625 24.238281 101.640625 24.246094 C 101.632812 24.253906 101.621094 24.269531 101.621094 24.277344 C 101.625 24.292969 101.636719 24.320312 101.644531 24.320312 C 101.894531 24.347656 102.148438 24.402344 102.398438 24.398438 C 103.179688 24.394531 103.9375 24.5625 104.742188 24.609375 Z M 109.238281 7.734375 C 109.398438 7.46875 109.457031 7.214844 109.582031 7 C 109.792969 6.632812 109.980469 6.25 110.25 5.914062 C 110.648438 5.410156 110.984375 4.851562 111.414062 4.367188 C 111.433594 4.347656 111.429688 4.308594 111.4375 4.273438 C 111.40625 4.277344 111.371094 4.273438 111.347656 4.289062 C 110.875 4.601562 110.496094 5.007812 110.214844 5.503906 C 110.164062 5.59375 110.132812 5.695312 110.070312 5.777344 C 109.691406 6.25 109.5 6.820312 109.257812 7.363281 C 109.210938 7.460938 109.210938 7.558594 109.238281 7.734375 Z M 109.503906 8.5 C 109.699219 8.441406 109.816406 8.300781 109.957031 8.1875 C 110.074219 8.089844 110.179688 7.96875 110.308594 7.894531 C 110.792969 7.605469 111.070312 7.125 111.421875 6.710938 C 111.511719 6.601562 111.578125 6.457031 111.597656 6.257812 C 111.53125 6.296875 111.480469 6.3125 111.441406 6.347656 C 110.839844 6.894531 110.261719 7.46875 109.726562 8.085938 C 109.617188 8.207031 109.542969 8.34375 109.503906 8.5 Z M 103.007812 20.203125 C 103.042969 20.183594 103.058594 20.152344 103.035156 20.125 C 103.007812 20.105469 102.980469 20.097656 102.949219 20.105469 C 102.8125 20.171875 102.671875 20.238281 102.539062 20.316406 C 102.304688 20.453125 102.105469 20.644531 101.917969 20.84375 C 101.882812 20.882812 101.847656 20.921875 101.875 20.972656 C 101.882812 20.984375 101.941406 20.96875 101.96875 20.953125 C 102.347656 20.75 102.671875 20.472656 103.007812 20.203125 Z M 109.253906 22.492188 C 109.765625 22.59375 110.175781 22.519531 110.582031 22.453125 C 110.601562 22.449219 110.613281 22.441406 110.625 22.429688 C 110.632812 22.417969 110.636719 22.40625 110.636719 22.390625 C 110.632812 22.375 110.621094 22.351562 110.613281 22.351562 C 110.328125 22.355469 110.042969 22.351562 109.761719 22.371094 C 109.621094 22.378906 109.484375 22.433594 109.253906 22.492188 Z M 107.605469 21.253906 C 107.324219 21.492188 107.132812 21.734375 107.050781 22.175781 C 107.234375 21.796875 107.476562 21.585938 107.605469 21.253906 Z M 103.503906 9.402344 C 103.515625 9.304688 103.40625 9.042969 103.296875 8.917969 C 103.289062 8.910156 103.265625 8.914062 103.253906 8.917969 C 103.242188 8.921875 103.222656 8.9375 103.222656 8.945312 C 103.238281 9.113281 103.300781 9.265625 103.414062 9.390625 C 103.425781 9.402344 103.4375 9.40625 103.457031 9.410156 C 103.472656 9.40625 103.488281 9.40625 103.503906 9.402344 Z M 103.503906 9.402344 " fill-opacity="1" fill-rule="nonzero"/></g></g></g><g clip-path="url(#id4)"><g clip-path="url(#id5)"><g clip-path="url(#id6)"><path fill="#d9d9d9" d="M 99.566406 20.503906 L 99.289062 20.683594 C 99.132812 20.636719 99 20.734375 98.859375 20.769531 C 98.75 20.800781 98.640625 20.863281 98.527344 20.789062 L 98.527344 20.777344 C 98.792969 20.613281 99.089844 20.539062 99.386719 20.449219 C 99.457031 20.429688 99.511719 20.46875 99.566406 20.503906 Z M 99.566406 20.503906 " fill-opacity="1" fill-rule="nonzero"/></g></g></g><g fill="#f1f1f2" fill-opacity="1"><g transform="translate(7.482791, 18.671581)"><g><path d="M 2.214844 0 L 7.125 0 L 8.53125 -1.410156 L 8.53125 -5.839844 L 7.125 -7.25 L 2.214844 -7.25 L 0.804688 -5.839844 L 0.804688 -1.410156 Z M 2.214844 -1.410156 L 2.214844 -5.839844 L 7.125 -5.839844 L 7.125 -1.410156 Z M 2.214844 -1.410156 "/></g></g></g><g fill="#f1f1f2" fill-opacity="1"><g transform="translate(16.820996, 18.671581)"><g><path d="M 2.214844 0 L 7.753906 0 L 7.753906 -1.410156 L 2.214844 -1.410156 L 2.214844 -5.839844 L 7.753906 -5.839844 L 7.753906 -7.25 L 2.214844 -7.25 L 0.804688 -5.839844 L 0.804688 -1.410156 Z M 2.214844 0 "/></g></g></g><g fill="#f1f1f2" fill-opacity="1"><g transform="translate(25.378921, 18.671581)"><g><path d="M 2.214844 0 L 8.507812 0 L 8.507812 -1.410156 L 2.214844 -1.410156 L 2.214844 -2.917969 L 6.871094 -2.917969 L 6.871094 -4.328125 L 2.214844 -4.328125 L 2.214844 -5.839844 L 8.507812 -5.839844 L 8.507812 -7.25 L 2.214844 -7.25 L 0.804688 -5.839844 L 0.804688 -1.410156 Z M 2.214844 0 "/></g></g></g><g fill="#f1f1f2" fill-opacity="1"><g transform="translate(34.691953, 18.671581)"><g><path d="M 0.804688 0 L 2.214844 0 L 2.214844 -2.917969 L 7.125 -2.917969 L 7.125 0 L 8.53125 0 L 8.53125 -5.839844 L 7.125 -7.25 L 2.214844 -7.25 L 0.804688 -5.839844 Z M 2.214844 -4.328125 L 2.214844 -5.839844 L 7.125 -5.839844 L 7.125 -4.328125 Z M 2.214844 -4.328125 "/></g></g></g><g fill="#f1f1f2" fill-opacity="1"><g transform="translate(44.030158, 18.671581)"><g><path d="M 0.804688 0 L 2.214844 0 L 2.214844 -5.839844 L 7.125 -5.839844 L 7.125 0 L 8.53125 0 L 8.53125 -5.839844 L 7.125 -7.25 L 2.214844 -7.25 L 0.804688 -5.839844 Z M 0.804688 0 "/></g></g></g><g fill="#f1f1f2" fill-opacity="1"><g transform="translate(60.12994, 18.711159)"><g><path d="M 0.804688 0 L 2.214844 0 L 2.214844 -2.917969 L 6.871094 -2.917969 L 6.871094 -4.328125 L 2.214844 -4.328125 L 2.214844 -5.839844 L 8.507812 -5.839844 L 8.507812 -7.25 L 2.214844 -7.25 L 0.804688 -5.839844 Z M 0.804688 0 "/></g></g></g><g fill="#f1f1f2" fill-opacity="1"><g transform="translate(69.442972, 18.711159)"><g><path d="M 2.214844 0 L 7.125 0 L 8.53125 -1.410156 L 8.53125 -5.839844 L 7.125 -7.25 L 2.214844 -7.25 L 0.804688 -5.839844 L 0.804688 -1.410156 Z M 2.214844 -1.410156 L 2.214844 -5.839844 L 7.125 -5.839844 L 7.125 -1.410156 Z M 2.214844 -1.410156 "/></g></g></g><g fill="#f1f1f2" fill-opacity="1"><g transform="translate(78.781176, 18.711159)"><g><path d="M 0.804688 0 L 2.214844 0 L 2.214844 -5.839844 L 7.753906 -5.839844 L 7.753906 -7.25 L 2.214844 -7.25 L 0.804688 -5.839844 Z M 0.804688 0 "/></g></g></g><g fill="#f1f1f2" fill-opacity="1"><g transform="translate(87.339102, 18.711159)"><g><path d="M 0.804688 0 L 2.214844 0 L 2.214844 -2.917969 L 6.117188 -2.917969 L 6.117188 0 L 7.527344 0 L 7.527344 -2.917969 L 6.820312 -3.625 L 7.527344 -4.328125 L 7.527344 -7.25 L 6.117188 -7.25 L 6.117188 -4.328125 L 2.214844 -4.328125 L 2.214844 -7.25 L 0.804688 -7.25 Z M 0.804688 0 "/></g></g></g></svg>