<svg xmlns="http://www.w3.org/2000/svg" xmlns:xlink="http://www.w3.org/1999/xlink" width="50" zoomAndPan="magnify" viewBox="0 0 37.5 37.499999" height="50" preserveAspectRatio="xMidYMid meet" version="1.0"><defs><clipPath id="id1"><path d="M 3.75 2.625 L 33.75 2.625 L 33.75 34.875 L 3.75 34.875 Z M 3.75 2.625 " clip-rule="nonzero"/></clipPath><clipPath id="id2"><path d="M 3.75 15 L 11 15 L 11 23 L 3.75 23 Z M 3.75 15 " clip-rule="nonzero"/></clipPath><clipPath id="id3"><path d="M 3.75 15 L 12 15 L 12 23 L 3.75 23 Z M 3.75 15 " clip-rule="nonzero"/></clipPath><clipPath id="id4"><path d="M 3.75 15 L 12 15 L 12 24 L 3.75 24 Z M 3.75 15 " clip-rule="nonzero"/></clipPath><clipPath id="id5"><path d="M 3.75 15 L 12 15 L 12 25 L 3.75 25 Z M 3.75 15 " clip-rule="nonzero"/></clipPath><clipPath id="id6"><path d="M 3.75 16 L 13 16 L 13 25 L 3.75 25 Z M 3.75 16 " clip-rule="nonzero"/></clipPath><clipPath id="id7"><path d="M 3.75 16 L 13 16 L 13 26 L 3.75 26 Z M 3.75 16 " clip-rule="nonzero"/></clipPath><clipPath id="id8"><path d="M 3.75 16 L 14 16 L 14 26 L 3.75 26 Z M 3.75 16 " clip-rule="nonzero"/></clipPath><clipPath id="id9"><path d="M 3.75 15 L 11 15 L 11 22 L 3.75 22 Z M 3.75 15 " clip-rule="nonzero"/></clipPath><clipPath id="id10"><path d="M 3.75 12 L 6 12 L 6 15 L 3.75 15 Z M 3.75 12 " clip-rule="nonzero"/></clipPath><clipPath id="id11"><path d="M 3.75 12 L 7 12 L 7 16 L 3.75 16 Z M 3.75 12 " clip-rule="nonzero"/></clipPath><clipPath id="id12"><path d="M 3.75 13 L 8 13 L 8 17 L 3.75 17 Z M 3.75 13 " clip-rule="nonzero"/></clipPath><clipPath id="id13"><path d="M 3.75 13 L 8 13 L 8 18 L 3.75 18 Z M 3.75 13 " clip-rule="nonzero"/></clipPath><clipPath id="id14"><path d="M 3.75 13 L 9 13 L 9 19 L 3.75 19 Z M 3.75 13 " clip-rule="nonzero"/></clipPath><clipPath id="id15"><path d="M 3.75 14 L 9 14 L 9 19 L 3.75 19 Z M 3.75 14 " clip-rule="nonzero"/></clipPath><clipPath id="id16"><path d="M 3.75 14 L 10 14 L 10 20 L 3.75 20 Z M 3.75 14 " clip-rule="nonzero"/></clipPath><clipPath id="id17"><path d="M 3.75 14 L 10 14 L 10 21 L 3.75 21 Z M 3.75 14 " clip-rule="nonzero"/></clipPath><clipPath id="id18"><path d="M 3.75 12 L 6 12 L 6 14 L 3.75 14 Z M 3.75 12 " clip-rule="nonzero"/></clipPath><clipPath id="id19"><path d="M 3.75 11 L 5 11 L 5 12 L 3.75 12 Z M 3.75 11 " clip-rule="nonzero"/></clipPath><clipPath id="id20"><path d="M 3.75 11 L 5 11 L 5 13 L 3.75 13 Z M 3.75 11 " clip-rule="nonzero"/></clipPath><clipPath id="id21"><path d="M 3.75 11 L 6 11 L 6 14 L 3.75 14 Z M 3.75 11 " clip-rule="nonzero"/></clipPath><clipPath id="id22"><path d="M 17 32 L 19 32 L 19 34.875 L 17 34.875 Z M 17 32 " clip-rule="nonzero"/></clipPath><clipPath id="id23"><path d="M 17 33 L 19 33 L 19 34.875 L 17 34.875 Z M 17 33 " clip-rule="nonzero"/></clipPath><clipPath id="id24"><path d="M 18 34 L 19 34 L 19 34.875 L 18 34.875 Z M 18 34 " clip-rule="nonzero"/></clipPath><clipPath id="id25"><path d="M 3.75 14 L 10 14 L 10 21 L 3.75 21 Z M 3.75 14 " clip-rule="nonzero"/></clipPath><clipPath id="id26"><path d="M 3.75 2.625 L 33.75 2.625 L 33.75 34.875 L 3.75 34.875 Z M 3.75 2.625 " clip-rule="nonzero"/></clipPath></defs><g clip-path="url(#id1)"><path fill="#94ddde" d="M 33.632812 11.300781 L 33.632812 26.132812 L 18.75 34.75 L 3.867188 26.132812 L 3.867188 11.300781 L 3.933594 11.339844 L 18.691406 2.792969 L 33.511719 11.371094 Z M 33.632812 11.300781 " fill-opacity="1" fill-rule="nonzero"/></g><path fill="#143c3c" d="M 10.617188 23.65625 L 9.976562 24.300781 L 6.582031 27.707031 L 6.605469 27.726562 L 8.714844 25.609375 L 11.921875 22.394531 L 15.984375 18.320312 L 15.960938 18.300781 Z M 10.617188 23.65625 " fill-opacity="1" fill-rule="nonzero"/><path fill="#143c3c" d="M 11.261719 23.65625 L 9.976562 24.945312 L 6.984375 27.945312 L 7.019531 27.957031 L 8.714844 26.253906 L 12.566406 22.394531 L 16.398438 18.550781 L 16.363281 18.539062 Z M 11.261719 23.65625 " fill-opacity="1" fill-rule="nonzero"/><path fill="#143c3c" d="M 11.902344 23.65625 L 9.976562 25.585938 L 7.390625 28.175781 L 7.421875 28.195312 L 8.714844 26.894531 L 13.207031 22.394531 L 16.410156 19.179688 L 16.800781 18.789062 L 16.769531 18.773438 Z M 11.902344 23.65625 " fill-opacity="1" fill-rule="nonzero"/><path fill="#143c3c" d="M 12.539062 23.65625 L 9.976562 26.230469 L 7.800781 28.414062 L 7.828125 28.429688 L 8.714844 27.539062 L 13.84375 22.394531 L 16.410156 19.824219 L 17.207031 19.023438 L 17.179688 19.011719 Z M 12.539062 23.65625 " fill-opacity="1" fill-rule="nonzero"/><path fill="#143c3c" d="M 13.183594 23.65625 L 9.976562 26.875 L 8.207031 28.648438 L 8.234375 28.667969 L 8.714844 28.183594 L 14.488281 22.394531 L 16.410156 20.46875 L 17.613281 19.261719 L 17.585938 19.242188 Z M 13.183594 23.65625 " fill-opacity="1" fill-rule="nonzero"/><path fill="#143c3c" d="M 13.824219 23.65625 L 9.976562 27.519531 L 8.613281 28.886719 L 8.644531 28.898438 L 8.714844 28.828125 L 15.128906 22.394531 L 16.410156 21.113281 L 18.023438 19.492188 L 17.992188 19.480469 L 17.671875 19.796875 Z M 13.824219 23.65625 " fill-opacity="1" fill-rule="nonzero"/><path fill="#143c3c" d="M 14.46875 23.65625 L 9.976562 28.15625 L 9.015625 29.117188 L 9.050781 29.136719 L 15.773438 22.394531 L 16.410156 21.75 L 18.429688 19.730469 L 18.394531 19.710938 L 17.671875 20.441406 Z M 14.46875 23.65625 " fill-opacity="1" fill-rule="nonzero"/><path fill="#143c3c" d="M 15.105469 23.65625 L 9.976562 28.800781 L 9.429688 29.355469 L 9.453125 29.367188 L 16.410156 22.394531 L 18.75 20.054688 L 18.75 20.007812 L 17.671875 21.085938 Z M 15.105469 23.65625 " fill-opacity="1" fill-rule="nonzero"/><path fill="#143c3c" d="M 9.339844 23.65625 L 5.765625 27.234375 L 5.796875 27.253906 L 8.714844 24.320312 L 10.644531 22.394531 L 15.175781 17.851562 L 15.144531 17.832031 Z M 9.339844 23.65625 " fill-opacity="1" fill-rule="nonzero"/><g clip-path="url(#id2)"><path fill="#143c3c" d="M 8.714844 17.25 L 10.703125 15.257812 L 10.675781 15.246094 L 9.976562 15.941406 L 3.867188 22.070312 L 3.867188 22.117188 Z M 8.714844 17.25 " fill-opacity="1" fill-rule="nonzero"/></g><g clip-path="url(#id3)"><path fill="#143c3c" d="M 4.226562 22.394531 L 8.714844 17.894531 L 11.105469 15.496094 L 11.082031 15.476562 L 10.617188 15.941406 L 9.976562 16.585938 L 3.867188 22.710938 L 3.867188 22.753906 Z M 4.226562 22.394531 " fill-opacity="1" fill-rule="nonzero"/></g><g clip-path="url(#id4)"><path fill="#143c3c" d="M 4.871094 22.394531 L 8.714844 18.53125 L 11.519531 15.730469 L 11.484375 15.714844 L 11.261719 15.941406 L 9.976562 17.222656 L 3.867188 23.355469 L 3.867188 23.398438 Z M 4.871094 22.394531 " fill-opacity="1" fill-rule="nonzero"/></g><g clip-path="url(#id5)"><path fill="#143c3c" d="M 5.507812 22.394531 L 8.714844 19.179688 L 11.921875 15.96875 L 11.890625 15.949219 L 9.976562 17.871094 L 4.203125 23.65625 L 3.867188 24 L 3.867188 24.042969 Z M 5.507812 22.394531 " fill-opacity="1" fill-rule="nonzero"/></g><g clip-path="url(#id6)"><path fill="#143c3c" d="M 6.148438 22.394531 L 8.714844 19.824219 L 12.328125 16.199219 L 12.300781 16.1875 L 9.976562 18.515625 L 4.84375 23.65625 L 3.867188 24.644531 L 3.867188 24.6875 Z M 6.148438 22.394531 " fill-opacity="1" fill-rule="nonzero"/></g><g clip-path="url(#id7)"><path fill="#143c3c" d="M 6.792969 22.394531 L 8.714844 20.46875 L 12.734375 16.4375 L 12.707031 16.417969 L 9.976562 19.160156 L 5.488281 23.65625 L 3.867188 25.28125 L 3.867188 25.328125 Z M 6.792969 22.394531 " fill-opacity="1" fill-rule="nonzero"/></g><g clip-path="url(#id8)"><path fill="#143c3c" d="M 7.4375 22.394531 L 8.714844 21.113281 L 13.144531 16.671875 L 13.113281 16.65625 L 9.976562 19.796875 L 6.128906 23.65625 L 3.867188 25.925781 L 3.867188 25.972656 Z M 7.4375 22.394531 " fill-opacity="1" fill-rule="nonzero"/></g><path fill="#143c3c" d="M 8.078125 22.394531 L 8.714844 21.75 L 13.550781 16.910156 L 13.515625 16.890625 L 9.976562 20.441406 L 6.765625 23.65625 L 4.136719 26.292969 L 4.171875 26.3125 Z M 8.078125 22.394531 " fill-opacity="1" fill-rule="nonzero"/><path fill="#143c3c" d="M 13.953125 17.140625 L 13.929688 17.128906 L 9.976562 21.085938 L 7.410156 23.65625 L 4.550781 26.53125 L 4.574219 26.546875 L 8.714844 22.394531 Z M 13.953125 17.140625 " fill-opacity="1" fill-rule="nonzero"/><path fill="#143c3c" d="M 9.359375 22.394531 L 14.359375 17.378906 L 14.332031 17.359375 L 9.976562 21.730469 L 8.054688 23.65625 L 4.953125 26.765625 L 4.980469 26.785156 L 8.714844 23.039062 Z M 9.359375 22.394531 " fill-opacity="1" fill-rule="nonzero"/><path fill="#143c3c" d="M 16.390625 23.65625 L 10.238281 29.828125 L 10.269531 29.839844 L 17.695312 22.394531 L 18.75 21.335938 L 18.75 21.292969 Z M 16.390625 23.65625 " fill-opacity="1" fill-rule="nonzero"/><path fill="#143c3c" d="M 17.035156 23.65625 L 10.644531 30.058594 L 10.675781 30.078125 L 16.410156 24.320312 L 18.339844 22.394531 L 18.75 21.980469 L 18.75 21.9375 Z M 17.035156 23.65625 " fill-opacity="1" fill-rule="nonzero"/><path fill="#143c3c" d="M 16.390625 31.375 L 15.117188 32.648438 L 15.148438 32.667969 L 17.695312 30.109375 L 18.75 29.054688 L 18.75 29.007812 Z M 16.390625 31.375 " fill-opacity="1" fill-rule="nonzero"/><path fill="#143c3c" d="M 17.035156 31.375 L 15.523438 32.890625 L 15.554688 32.902344 L 16.410156 32.042969 L 18.339844 30.109375 L 18.75 29.699219 L 18.75 29.652344 Z M 17.035156 31.375 " fill-opacity="1" fill-rule="nonzero"/><g clip-path="url(#id9)"><path fill="#143c3c" d="M 8.714844 16.605469 L 10.296875 15.027344 L 10.265625 15.007812 L 9.339844 15.941406 L 3.867188 21.425781 L 3.867188 21.472656 Z M 8.714844 16.605469 " fill-opacity="1" fill-rule="nonzero"/></g><g clip-path="url(#id10)"><path fill="#143c3c" d="M 5.796875 12.414062 L 3.867188 14.351562 L 3.867188 14.394531 L 5.820312 12.433594 Z M 5.796875 12.414062 " fill-opacity="1" fill-rule="nonzero"/></g><g clip-path="url(#id11)"><path fill="#143c3c" d="M 4.226562 14.679688 L 6.226562 12.667969 L 6.203125 12.652344 L 3.867188 14.996094 L 3.867188 15.039062 Z M 4.226562 14.679688 " fill-opacity="1" fill-rule="nonzero"/><path fill="#143c3c" d="M 4.871094 14.679688 L 6.636719 12.90625 L 6.605469 12.886719 L 3.867188 15.640625 L 3.867188 15.683594 Z M 4.871094 14.679688 " fill-opacity="1" fill-rule="nonzero"/></g><g clip-path="url(#id12)"><path fill="#143c3c" d="M 5.507812 14.679688 L 7.042969 13.136719 L 7.011719 13.125 L 4.203125 15.941406 L 3.867188 16.285156 L 3.867188 16.328125 Z M 5.507812 14.679688 " fill-opacity="1" fill-rule="nonzero"/><path fill="#143c3c" d="M 6.148438 14.679688 L 7.449219 13.375 L 7.421875 13.355469 L 4.84375 15.941406 L 3.867188 16.921875 L 3.867188 16.972656 Z M 6.148438 14.679688 " fill-opacity="1" fill-rule="nonzero"/></g><g clip-path="url(#id13)"><path fill="#143c3c" d="M 6.792969 14.679688 L 7.855469 13.609375 L 7.828125 13.59375 L 5.488281 15.941406 L 3.867188 17.566406 L 3.867188 17.613281 Z M 6.792969 14.679688 " fill-opacity="1" fill-rule="nonzero"/></g><g clip-path="url(#id14)"><path fill="#143c3c" d="M 7.4375 14.679688 L 8.265625 13.847656 L 8.234375 13.828125 L 6.128906 15.941406 L 3.867188 18.210938 L 3.867188 18.257812 Z M 7.4375 14.679688 " fill-opacity="1" fill-rule="nonzero"/></g><g clip-path="url(#id15)"><path fill="#143c3c" d="M 8.078125 14.679688 L 8.671875 14.085938 L 8.636719 14.066406 L 6.765625 15.941406 L 3.867188 18.855469 L 3.867188 18.902344 Z M 8.078125 14.679688 " fill-opacity="1" fill-rule="nonzero"/></g><g clip-path="url(#id16)"><path fill="#143c3c" d="M 9.074219 14.316406 L 9.050781 14.296875 L 7.410156 15.941406 L 3.867188 19.5 L 3.867188 19.546875 L 8.714844 14.679688 Z M 9.074219 14.316406 " fill-opacity="1" fill-rule="nonzero"/></g><g clip-path="url(#id17)"><path fill="#143c3c" d="M 9.359375 14.679688 L 9.480469 14.554688 L 9.453125 14.535156 L 8.054688 15.941406 L 3.867188 20.136719 L 3.867188 20.183594 L 8.714844 15.324219 Z M 9.359375 14.679688 " fill-opacity="1" fill-rule="nonzero"/></g><g clip-path="url(#id18)"><path fill="#143c3c" d="M 5.386719 12.183594 L 3.867188 13.710938 L 3.867188 13.757812 L 5.417969 12.195312 Z M 5.386719 12.183594 " fill-opacity="1" fill-rule="nonzero"/></g><g clip-path="url(#id19)"><path fill="#143c3c" d="M 4.171875 11.476562 L 3.867188 11.777344 L 3.867188 11.824219 L 4.195312 11.492188 Z M 4.171875 11.476562 " fill-opacity="1" fill-rule="nonzero"/></g><g clip-path="url(#id20)"><path fill="#143c3c" d="M 4.574219 11.714844 L 3.867188 12.421875 L 3.867188 12.46875 L 4.601562 11.726562 Z M 4.574219 11.714844 " fill-opacity="1" fill-rule="nonzero"/></g><g clip-path="url(#id21)"><path fill="#143c3c" d="M 4.980469 11.945312 L 3.867188 13.066406 L 3.867188 13.113281 L 5.011719 11.964844 Z M 4.980469 11.945312 " fill-opacity="1" fill-rule="nonzero"/></g><path fill="#143c3c" d="M 17.671875 31.375 L 15.933594 33.121094 L 15.960938 33.140625 L 16.410156 32.683594 L 18.75 30.34375 L 18.75 30.296875 Z M 17.671875 31.375 " fill-opacity="1" fill-rule="nonzero"/><path fill="#143c3c" d="M 18.3125 31.375 L 17.671875 32.019531 L 16.339844 33.359375 L 16.363281 33.371094 L 16.410156 33.328125 L 18.75 30.988281 L 18.75 30.941406 Z M 18.3125 31.375 " fill-opacity="1" fill-rule="nonzero"/><path fill="#143c3c" d="M 16.746094 33.589844 L 16.777344 33.609375 L 18.75 31.632812 L 18.75 31.582031 L 17.671875 32.664062 Z M 16.746094 33.589844 " fill-opacity="1" fill-rule="nonzero"/><path fill="#143c3c" d="M 17.148438 33.828125 L 17.179688 33.84375 L 18.75 32.269531 L 18.75 32.226562 L 17.671875 33.308594 Z M 17.148438 33.828125 " fill-opacity="1" fill-rule="nonzero"/><g clip-path="url(#id22)"><path fill="#143c3c" d="M 17.5625 34.0625 L 17.585938 34.082031 L 18.75 32.914062 L 18.75 32.871094 L 17.671875 33.945312 Z M 17.5625 34.0625 " fill-opacity="1" fill-rule="nonzero"/></g><g clip-path="url(#id23)"><path fill="#143c3c" d="M 17.992188 34.3125 L 18.75 33.558594 L 18.75 33.515625 L 17.964844 34.300781 Z M 17.992188 34.3125 " fill-opacity="1" fill-rule="nonzero"/></g><g clip-path="url(#id24)"><path fill="#143c3c" d="M 18.402344 34.550781 L 18.75 34.203125 L 18.75 34.160156 L 18.371094 34.53125 Z M 18.402344 34.550781 " fill-opacity="1" fill-rule="nonzero"/></g><path fill="#143c3c" d="M 17.671875 23.65625 L 11.054688 30.296875 L 11.082031 30.308594 L 11.28125 30.109375 L 16.410156 24.964844 L 18.75 22.625 L 18.75 22.582031 Z M 17.671875 23.65625 " fill-opacity="1" fill-rule="nonzero"/><path fill="#143c3c" d="M 18.3125 23.65625 L 17.671875 24.300781 L 11.460938 30.53125 L 11.484375 30.546875 L 11.921875 30.109375 L 16.410156 25.609375 L 18.75 23.269531 L 18.75 23.226562 Z M 18.3125 23.65625 " fill-opacity="1" fill-rule="nonzero"/><path fill="#143c3c" d="M 11.863281 30.769531 L 11.898438 30.789062 L 12.566406 30.109375 L 16.410156 26.253906 L 18.75 23.910156 L 18.75 23.863281 L 17.671875 24.945312 Z M 11.863281 30.769531 " fill-opacity="1" fill-rule="nonzero"/><path fill="#143c3c" d="M 12.269531 31 L 12.300781 31.019531 L 13.207031 30.109375 L 16.410156 26.894531 L 18.75 24.554688 L 18.75 24.507812 L 17.671875 25.585938 Z M 12.269531 31 " fill-opacity="1" fill-rule="nonzero"/><path fill="#143c3c" d="M 12.679688 31.238281 L 12.707031 31.257812 L 13.84375 30.109375 L 16.410156 27.539062 L 18.75 25.199219 L 18.75 25.152344 L 17.671875 26.230469 Z M 12.679688 31.238281 " fill-opacity="1" fill-rule="nonzero"/><path fill="#143c3c" d="M 13.183594 31.375 L 13.085938 31.46875 L 13.113281 31.488281 L 14.488281 30.109375 L 16.410156 28.183594 L 18.75 25.84375 L 18.75 25.796875 L 17.671875 26.875 Z M 13.183594 31.375 " fill-opacity="1" fill-rule="nonzero"/><path fill="#143c3c" d="M 13.824219 31.375 L 13.492188 31.710938 L 13.523438 31.726562 L 15.128906 30.109375 L 16.410156 28.828125 L 18.75 26.480469 L 18.75 26.4375 L 17.671875 27.519531 Z M 13.824219 31.375 " fill-opacity="1" fill-rule="nonzero"/><path fill="#143c3c" d="M 14.46875 31.375 L 13.894531 31.949219 L 13.929688 31.960938 L 15.773438 30.109375 L 16.410156 29.464844 L 18.75 27.125 L 18.75 27.082031 L 17.671875 28.15625 Z M 14.46875 31.375 " fill-opacity="1" fill-rule="nonzero"/><path fill="#143c3c" d="M 15.105469 31.375 L 14.308594 32.179688 L 14.332031 32.199219 L 16.410156 30.109375 L 18.75 27.769531 L 18.75 27.726562 L 17.671875 28.800781 Z M 15.105469 31.375 " fill-opacity="1" fill-rule="nonzero"/><path fill="#143c3c" d="M 15.746094 31.375 L 14.710938 32.417969 L 14.738281 32.429688 L 16.410156 30.753906 L 18.75 28.414062 L 18.75 28.371094 L 17.671875 29.445312 Z M 15.746094 31.375 " fill-opacity="1" fill-rule="nonzero"/><path fill="#143c3c" d="M 10 22.394531 L 14.769531 17.613281 L 14.738281 17.597656 L 8.695312 23.65625 L 5.359375 27.003906 L 5.390625 27.015625 Z M 10 22.394531 " fill-opacity="1" fill-rule="nonzero"/><path fill="#143c3c" d="M 9.976562 23.65625 L 6.175781 27.472656 L 6.203125 27.488281 L 8.714844 24.964844 L 11.28125 22.394531 L 15.582031 18.082031 L 15.554688 18.070312 Z M 9.976562 23.65625 " fill-opacity="1" fill-rule="nonzero"/><path fill="#143c3c" d="M 15.746094 23.65625 L 9.976562 29.445312 L 9.832031 29.589844 L 9.859375 29.609375 L 16.410156 23.039062 L 18.75 20.699219 L 18.75 20.652344 Z M 15.746094 23.65625 " fill-opacity="1" fill-rule="nonzero"/><g clip-path="url(#id25)"><path fill="#143c3c" d="M 9.859375 14.769531 L 8.695312 15.941406 L 3.867188 20.78125 L 3.867188 20.828125 L 9.890625 14.789062 Z M 9.859375 14.769531 " fill-opacity="1" fill-rule="nonzero"/></g><path fill="#fefefe" d="M 32.675781 17.4375 L 26.574219 20.96875 L 26.574219 17.4375 L 32.675781 13.90625 Z M 32.675781 17.4375 " fill-opacity="1" fill-rule="nonzero"/><path fill="#f7b4a7" d="M 13.3125 16.78125 L 13.261719 16.746094 L 13.261719 21.929688 L 12.628906 22.605469 L 11.949219 21.09375 L 11.265625 21.820312 L 10.585938 20.304688 L 9.90625 21.035156 L 9.359375 19.824219 L 9.359375 14.484375 L 9.421875 14.523438 L 24.1875 5.96875 L 28.085938 8.226562 Z M 13.3125 16.78125 " fill-opacity="1" fill-rule="nonzero"/><g clip-path="url(#id26)"><path fill="#143c3c" d="M 32.675781 25.28125 L 28.777344 27.539062 L 28.777344 25.28125 L 32.675781 23.027344 Z M 32.777344 17.5 L 32.777344 13.722656 L 26.457031 17.378906 L 26.457031 21.15625 Z M 32.566406 14.089844 L 32.566406 17.378906 L 26.675781 20.789062 L 26.675781 17.5 Z M 33.742188 11.363281 L 33.734375 26.199219 L 18.75 34.875 L 3.757812 26.199219 L 3.757812 11.242188 L 18.648438 2.625 Z M 9.46875 14.679688 L 9.46875 19.796875 L 9.9375 20.839844 L 10.617188 20.113281 L 11.300781 21.628906 L 11.980469 20.898438 L 12.664062 22.414062 L 13.152344 21.886719 L 13.152344 16.804688 Z M 13.316406 16.652344 L 27.871094 8.226562 L 24.1875 6.09375 L 9.640625 14.515625 Z M 4.085938 11.300781 L 9.429688 14.394531 L 23.984375 5.964844 L 18.640625 2.867188 Z M 18.640625 19.976562 L 13.363281 16.921875 L 13.363281 21.976562 L 12.589844 22.800781 L 11.910156 21.285156 L 11.230469 22.015625 L 10.546875 20.5 L 9.867188 21.226562 L 9.25 19.847656 L 9.25 14.550781 L 3.972656 11.488281 L 3.972656 26.074219 L 18.640625 34.566406 Z M 18.75 19.789062 L 33.3125 11.359375 L 28.097656 8.34375 L 13.535156 16.773438 Z M 33.523438 11.488281 L 18.851562 19.984375 L 18.851562 34.566406 L 33.523438 26.074219 Z M 22.5625 29.78125 L 21.449219 28.394531 L 20.335938 31.070312 L 20.878906 30.753906 L 20.878906 31.824219 L 22.023438 31.167969 L 22.023438 30.105469 Z M 22.5625 29.78125 " fill-opacity="1" fill-rule="nonzero"/></g></svg>