<svg xmlns="http://www.w3.org/2000/svg" xmlns:xlink="http://www.w3.org/1999/xlink" width="50" zoomAndPan="magnify" viewBox="0 0 37.5 37.499999" height="50" preserveAspectRatio="xMidYMid meet" version="1.0"><defs><clipPath id="id1"><path d="M 2.375 5.324219 L 35.375 5.324219 L 35.375 32.324219 L 2.375 32.324219 Z M 2.375 5.324219 " clip-rule="nonzero"/></clipPath></defs><path fill="#f0abc1" d="M 33.800781 19.300781 L 33.800781 25.691406 C 33.800781 27.714844 32.367188 28.53125 30.597656 27.511719 L 30.53125 27.472656 L 28.957031 30.160156 L 27.382812 25.664062 L 18.476562 20.535156 C 16.699219 19.511719 15.265625 17.039062 15.265625 15.015625 L 15.265625 8.628906 C 15.265625 6.601562 16.699219 5.785156 18.46875 6.808594 L 30.589844 13.789062 C 32.359375 14.804688 33.800781 17.277344 33.800781 19.300781 Z M 33.800781 19.300781 " fill-opacity="1" fill-rule="nonzero"/><path fill="#94ddde" d="M 6.429688 17.964844 L 16.667969 12.0625 C 18.167969 11.199219 19.375 11.890625 19.375 13.597656 L 19.375 19 C 19.375 20.714844 18.160156 22.796875 16.667969 23.660156 L 9.140625 28 L 7.8125 31.804688 L 6.484375 29.527344 L 6.425781 29.5625 C 4.925781 30.425781 3.714844 29.734375 3.714844 28.023438 L 3.714844 22.625 C 3.722656 20.910156 4.9375 18.828125 6.429688 17.964844 Z M 6.429688 17.964844 " fill-opacity="1" fill-rule="nonzero"/><path fill="#ffffff" d="M 27.226562 19.914062 L 24.878906 20.488281 L 24.53125 20.574219 L 24.179688 20.085938 L 21.832031 16.808594 C 21.074219 15.742188 20.808594 14.429688 21.210938 13.699219 C 21.8125 12.601562 23.511719 13.316406 24.429688 15.050781 L 24.53125 15.234375 L 24.628906 15.160156 C 25.546875 14.480469 27.246094 15.722656 27.847656 17.515625 C 28.25 18.714844 27.992188 19.722656 27.226562 19.914062 Z M 11.28125 17.632812 L 10.480469 19.953125 L 8.683594 21.285156 C 8.441406 21.472656 8.339844 21.875 8.519531 21.964844 L 9.8125 22.664062 L 9.511719 24.886719 C 9.46875 25.191406 9.726562 25.257812 9.945312 25 L 11.550781 23.105469 L 13.15625 23.144531 C 13.375 23.152344 13.632812 22.789062 13.59375 22.53125 L 13.289062 20.667969 L 14.585938 18.472656 C 14.761719 18.167969 14.664062 17.878906 14.417969 17.984375 L 12.621094 18.722656 L 11.824219 17.324219 C 11.710938 17.132812 11.394531 17.316406 11.28125 17.632812 Z M 11.28125 17.632812 " fill-opacity="1" fill-rule="nonzero"/><g clip-path="url(#id1)"><path fill="#143c3c" d="M 32.050781 12.917969 L 19.9375 5.945312 C 19.003906 5.402344 18.113281 5.324219 17.441406 5.71875 L 16.089844 6.390625 C 15.878906 6.511719 15.703125 6.675781 15.554688 6.875 C 15.226562 7.308594 15.046875 7.902344 15.046875 8.632812 L 15.046875 11.566406 L 13.277344 12.589844 L 5.203125 17.226562 C 3.648438 18.121094 2.378906 20.304688 2.378906 22.085938 L 2.378906 27.484375 C 2.378906 28.386719 2.699219 29.074219 3.277344 29.402344 L 4.394531 29.945312 C 4.457031 29.976562 4.519531 30.007812 4.582031 30.03125 C 4.601562 30.035156 4.628906 30.050781 4.648438 30.054688 C 4.691406 30.070312 4.734375 30.082031 4.777344 30.09375 C 4.804688 30.101562 4.832031 30.109375 4.859375 30.113281 C 4.917969 30.128906 4.96875 30.136719 5.03125 30.140625 C 5.078125 30.148438 5.121094 30.148438 5.167969 30.148438 C 5.1875 30.148438 5.207031 30.148438 5.222656 30.148438 C 5.386719 30.148438 5.566406 30.121094 5.742188 30.074219 L 6.742188 31.785156 L 7.859375 32.324219 L 9.320312 28.144531 L 16.785156 23.859375 C 17.738281 23.3125 18.582031 22.277344 19.097656 21.148438 L 27.199219 25.816406 L 28.21875 28.742188 L 28.898438 30.695312 L 30.246094 30.023438 L 31.375 28.085938 C 31.585938 28.136719 31.792969 28.171875 31.988281 28.171875 C 32.011719 28.171875 32.035156 28.171875 32.054688 28.171875 C 32.109375 28.171875 32.160156 28.171875 32.214844 28.164062 C 32.289062 28.15625 32.351562 28.148438 32.417969 28.136719 C 32.453125 28.128906 32.480469 28.125 32.511719 28.117188 C 32.566406 28.105469 32.617188 28.089844 32.671875 28.070312 C 32.695312 28.066406 32.722656 28.050781 32.75 28.042969 C 32.824219 28.011719 32.894531 27.980469 32.96875 27.9375 L 34.316406 27.265625 C 34.988281 26.878906 35.359375 26.078125 35.359375 25.023438 L 35.359375 18.636719 C 35.375 16.539062 33.878906 13.972656 32.050781 12.917969 Z M 16.5625 23.46875 L 9.035156 27.808594 L 8.960938 27.847656 L 7.765625 31.269531 L 6.570312 29.226562 L 6.320312 29.371094 C 5.664062 29.746094 5.0625 29.820312 4.621094 29.5625 C 4.183594 29.3125 3.945312 28.761719 3.945312 28.023438 L 3.945312 22.625 C 3.945312 20.988281 5.109375 18.984375 6.542969 18.160156 L 16.785156 12.261719 C 17.441406 11.882812 18.039062 11.8125 18.484375 12.070312 C 18.917969 12.320312 19.15625 12.867188 19.15625 13.605469 L 19.15625 19.003906 C 19.15625 20.640625 17.996094 22.644531 16.5625 23.46875 Z M 33.574219 25.691406 C 33.574219 26.582031 33.285156 27.242188 32.757812 27.542969 C 32.222656 27.855469 31.496094 27.769531 30.707031 27.320312 L 30.445312 27.167969 L 29.003906 29.628906 L 27.5625 25.511719 L 19.261719 20.734375 C 19.480469 20.152344 19.601562 19.558594 19.601562 19.003906 L 19.601562 13.605469 C 19.601562 13.539062 19.59375 13.472656 19.59375 13.40625 C 19.554688 12.628906 19.257812 12.035156 18.753906 11.714844 C 18.734375 11.699219 18.722656 11.6875 18.703125 11.679688 L 17.589844 11.140625 C 17.015625 10.808594 16.277344 10.867188 15.496094 11.304688 L 15.496094 8.628906 C 15.496094 7.738281 15.789062 7.078125 16.316406 6.773438 C 16.527344 6.648438 16.773438 6.589844 17.042969 6.589844 C 17.445312 6.589844 17.894531 6.726562 18.371094 7 L 30.488281 13.980469 C 32.195312 14.964844 33.582031 17.351562 33.582031 19.300781 Z M 25.71875 14.824219 C 25.304688 14.691406 24.917969 14.71875 24.609375 14.902344 C 23.980469 13.738281 22.976562 12.953125 22.097656 12.945312 C 21.621094 12.945312 21.246094 13.171875 21.015625 13.585938 C 20.570312 14.398438 20.835938 15.800781 21.648438 16.933594 L 24.429688 20.824219 L 27.273438 20.125 C 27.597656 20.046875 27.859375 19.84375 28.03125 19.527344 C 28.316406 19.011719 28.324219 18.246094 28.050781 17.4375 C 27.640625 16.203125 26.683594 15.128906 25.71875 14.824219 Z M 27.648438 19.316406 C 27.535156 19.511719 27.378906 19.644531 27.171875 19.691406 L 24.621094 20.316406 L 22.019531 16.679688 C 21.3125 15.695312 21.054688 14.457031 21.410156 13.804688 C 21.554688 13.53125 21.789062 13.394531 22.085938 13.394531 L 22.089844 13.394531 C 22.679688 13.402344 23.597656 13.949219 24.234375 15.15625 L 24.449219 15.570312 L 24.761719 15.339844 C 25.027344 15.140625 25.355469 15.179688 25.585938 15.253906 C 26.289062 15.472656 27.21875 16.339844 27.636719 17.582031 C 27.867188 18.265625 27.867188 18.917969 27.648438 19.316406 Z M 14.332031 17.777344 L 12.722656 18.4375 L 12.015625 17.210938 C 11.933594 17.078125 11.804688 17.007812 11.644531 17.019531 C 11.40625 17.039062 11.167969 17.265625 11.0625 17.5625 L 10.285156 19.816406 L 8.546875 21.109375 C 8.328125 21.273438 8.183594 21.570312 8.203125 21.820312 C 8.214844 21.980469 8.289062 22.105469 8.40625 22.171875 L 9.570312 22.796875 L 9.285156 24.859375 C 9.246094 25.128906 9.378906 25.296875 9.511719 25.355469 C 9.5625 25.375 9.617188 25.386719 9.667969 25.386719 C 9.820312 25.386719 9.980469 25.300781 10.113281 25.144531 L 11.644531 23.335938 L 13.144531 23.375 C 13.296875 23.375 13.460938 23.296875 13.59375 23.144531 C 13.726562 22.996094 13.851562 22.75 13.8125 22.5 L 13.519531 20.714844 L 14.777344 18.589844 C 14.933594 18.328125 14.941406 18.035156 14.796875 17.871094 C 14.683594 17.738281 14.503906 17.707031 14.332031 17.777344 Z M 14.394531 18.367188 L 13.050781 20.632812 L 13.371094 22.578125 C 13.375 22.632812 13.355469 22.730469 13.285156 22.824219 C 13.230469 22.894531 13.175781 22.929688 13.164062 22.929688 L 11.453125 22.882812 L 9.78125 24.855469 C 9.769531 24.867188 9.753906 24.878906 9.742188 24.894531 L 10.066406 22.546875 L 8.65625 21.789062 C 8.652344 21.722656 8.703125 21.558594 8.824219 21.472656 L 10.671875 20.101562 L 11.5 17.714844 C 11.539062 17.59375 11.613281 17.523438 11.65625 17.488281 L 12.53125 19.003906 L 14.453125 18.21875 C 14.441406 18.253906 14.425781 18.304688 14.394531 18.367188 Z M 14.394531 18.367188 " fill-opacity="1" fill-rule="nonzero"/></g></svg>