<svg xmlns="http://www.w3.org/2000/svg" xmlns:xlink="http://www.w3.org/1999/xlink" width="50" zoomAndPan="magnify" viewBox="0 0 37.5 37.499999" height="50" preserveAspectRatio="xMidYMid meet" version="1.0"><defs><clipPath id="id1"><path d="M 12 8 L 33.75 8 L 33.75 33.992188 L 12 33.992188 Z M 12 8 " clip-rule="nonzero"/></clipPath><clipPath id="id2"><path d="M 3.75 3.242188 L 33.75 3.242188 L 33.75 33.992188 L 3.75 33.992188 Z M 3.75 3.242188 " clip-rule="nonzero"/></clipPath></defs><g clip-path="url(#id1)"><path fill="#94ddde" d="M 32.199219 8.367188 L 13.761719 18.925781 C 12.949219 19.386719 12.308594 20.609375 12.308594 21.671875 L 12.308594 32.449219 C 12.308594 33.507812 12.957031 33.992188 13.761719 33.53125 L 32.199219 22.976562 C 33.007812 22.515625 33.652344 21.289062 33.652344 20.230469 L 33.652344 9.453125 C 33.65625 8.386719 33.007812 7.910156 32.199219 8.367188 Z M 32.199219 8.367188 " fill-opacity="1" fill-rule="nonzero"/></g><path fill="#f0abc1" d="M 10.914062 21.132812 C 10.914062 19.992188 11.597656 18.707031 12.46875 18.203125 L 30.125 8.085938 L 30.125 7.386719 C 30.125 6.328125 29.476562 5.84375 28.675781 6.304688 L 10.234375 16.839844 C 9.425781 17.296875 8.78125 18.523438 8.78125 19.582031 L 8.78125 30.359375 C 8.78125 31.421875 9.429688 31.902344 10.234375 31.445312 L 10.917969 31.066406 Z M 29.253906 21.40625 C 29.253906 20.824219 29.539062 20.164062 29.941406 19.660156 C 29.738281 19.644531 29.515625 19.703125 29.253906 19.839844 C 28.507812 20.28125 27.882812 21.320312 27.882812 22.183594 C 27.882812 23.046875 28.488281 23.386719 29.253906 22.945312 C 29.496094 22.804688 29.738281 22.582031 29.941406 22.34375 C 29.539062 22.332031 29.253906 21.988281 29.253906 21.40625 Z M 30.625 19.066406 C 30.386719 19.207031 30.144531 19.429688 29.941406 19.667969 C 30.339844 19.710938 30.625 20.046875 30.625 20.628906 C 30.625 21.210938 30.339844 21.871094 29.941406 22.375 C 30.144531 22.394531 30.367188 22.332031 30.625 22.195312 C 31.371094 21.757812 31.996094 20.714844 31.996094 19.851562 C 31.984375 18.988281 31.371094 18.644531 30.625 19.066406 Z M 30.625 19.066406 " fill-opacity="1" fill-rule="nonzero"/><path fill="#f7b4a7" d="M 7.355469 19.148438 C 7.355469 18.007812 8.042969 16.722656 8.914062 16.21875 L 26.566406 6.101562 L 26.566406 5.324219 C 26.566406 4.265625 25.917969 3.78125 25.117188 4.242188 L 6.671875 14.800781 C 5.863281 15.257812 5.21875 16.484375 5.21875 17.542969 L 5.21875 28.320312 C 5.21875 29.382812 5.867188 29.863281 6.671875 29.40625 L 7.355469 29.027344 Z M 30.625 20.628906 C 30.625 20.046875 30.339844 19.710938 29.941406 19.667969 C 29.539062 20.171875 29.253906 20.832031 29.253906 21.414062 C 29.253906 21.996094 29.539062 22.332031 29.941406 22.375 C 30.347656 21.871094 30.625 21.210938 30.625 20.628906 Z M 30.625 20.628906 " fill-opacity="1" fill-rule="nonzero"/><path fill="#143c3c" d="M 19.175781 20.949219 L 19.378906 20.824219 L 19.378906 20.382812 L 19.175781 20.507812 C 18.714844 20.769531 18.347656 20.566406 18.347656 20.046875 C 18.347656 19.527344 18.730469 18.910156 19.175781 18.644531 L 19.378906 18.523438 L 19.378906 18.101562 L 19.175781 18.222656 C 18.507812 18.601562 17.984375 19.527344 17.984375 20.269531 C 17.984375 21.027344 18.527344 21.328125 19.175781 20.949219 Z M 19.175781 20.949219 " fill-opacity="1" fill-rule="nonzero"/><path fill="#143c3c" d="M 17.316406 21.988281 L 17.519531 21.867188 L 17.519531 21.425781 L 17.316406 21.546875 C 16.855469 21.8125 16.488281 21.609375 16.488281 21.089844 C 16.488281 20.566406 16.871094 19.949219 17.316406 19.6875 L 17.519531 19.5625 L 17.519531 19.140625 L 17.316406 19.261719 C 16.648438 19.644531 16.125 20.566406 16.125 21.308594 C 16.125 22.070312 16.667969 22.367188 17.316406 21.988281 Z M 17.316406 21.988281 " fill-opacity="1" fill-rule="nonzero"/><path fill="#143c3c" d="M 15.476562 23.054688 L 15.679688 22.933594 L 15.679688 22.492188 L 15.476562 22.613281 C 15.015625 22.875 14.648438 22.675781 14.648438 22.152344 C 14.648438 21.632812 15.03125 21.015625 15.476562 20.75 L 15.679688 20.628906 L 15.679688 20.207031 L 15.476562 20.328125 C 14.808594 20.707031 14.285156 21.632812 14.285156 22.375 C 14.285156 23.132812 14.835938 23.433594 15.476562 23.054688 Z M 15.476562 23.054688 " fill-opacity="1" fill-rule="nonzero"/><path fill="#143c3c" d="M 14.308594 29.320312 L 23.78125 23.894531 L 23.78125 23.453125 L 14.308594 28.878906 Z M 14.308594 29.320312 " fill-opacity="1" fill-rule="nonzero"/><path fill="#143c3c" d="M 31.699219 18.785156 C 31.378906 18.609375 30.953125 18.644531 30.527344 18.882812 C 30.28125 19.019531 30.027344 19.222656 29.816406 19.484375 C 29.601562 19.488281 29.382812 19.558594 29.15625 19.6875 C 28.328125 20.144531 27.679688 21.246094 27.679688 22.191406 C 27.679688 22.667969 27.859375 23.054688 28.1875 23.230469 C 28.328125 23.3125 28.488281 23.355469 28.648438 23.355469 C 28.871094 23.355469 29.113281 23.273438 29.355469 23.175781 C 29.605469 23.042969 29.855469 22.835938 30.070312 22.570312 C 30.273438 22.558594 30.507812 22.480469 30.722656 22.332031 C 31.550781 21.871094 32.199219 20.769531 32.199219 19.828125 C 32.199219 19.34375 32.019531 18.964844 31.699219 18.785156 Z M 29.15625 22.792969 C 28.851562 22.96875 28.585938 23.011719 28.390625 22.890625 C 28.1875 22.765625 28.085938 22.527344 28.085938 22.191406 C 28.085938 21.390625 28.65625 20.425781 29.359375 20.027344 C 29.398438 20.011719 29.445312 19.992188 29.484375 19.980469 C 29.25 20.382812 29.101562 20.820312 29.0625 21.222656 C 29.0625 21.234375 29.0625 21.253906 29.058594 21.265625 C 29.058594 21.285156 29.058594 21.296875 29.058594 21.316406 C 29.058594 21.347656 29.058594 21.382812 29.058594 21.414062 C 29.058594 21.449219 29.058594 21.488281 29.0625 21.523438 C 29.0625 21.535156 29.0625 21.546875 29.0625 21.558594 C 29.0625 21.585938 29.070312 21.609375 29.070312 21.628906 C 29.070312 21.644531 29.074219 21.65625 29.074219 21.675781 C 29.074219 21.6875 29.082031 21.707031 29.082031 21.71875 C 29.144531 22.082031 29.324219 22.34375 29.574219 22.472656 C 29.433594 22.59375 29.292969 22.710938 29.15625 22.792969 Z M 29.847656 22.148438 C 29.59375 22.0625 29.457031 21.8125 29.457031 21.425781 C 29.457031 20.949219 29.679688 20.371094 30.046875 19.902344 C 30.058594 19.90625 30.070312 19.914062 30.082031 19.914062 C 30.089844 19.914062 30.089844 19.917969 30.09375 19.917969 C 30.101562 19.925781 30.105469 19.925781 30.113281 19.929688 C 30.285156 20.035156 30.402344 20.25 30.421875 20.554688 C 30.421875 20.574219 30.421875 20.59375 30.421875 20.609375 C 30.421875 20.617188 30.421875 20.625 30.421875 20.628906 C 30.421875 20.636719 30.421875 20.636719 30.421875 20.640625 C 30.421875 20.667969 30.421875 20.695312 30.421875 20.722656 C 30.421875 20.726562 30.421875 20.738281 30.421875 20.746094 C 30.421875 20.769531 30.414062 20.792969 30.414062 20.8125 C 30.414062 20.820312 30.414062 20.832031 30.414062 20.835938 C 30.410156 20.863281 30.410156 20.886719 30.402344 20.917969 C 30.402344 20.921875 30.402344 20.929688 30.402344 20.929688 C 30.328125 21.332031 30.136719 21.773438 29.847656 22.148438 Z M 30.527344 22.007812 C 30.484375 22.027344 30.429688 22.050781 30.386719 22.070312 C 30.667969 21.609375 30.828125 21.089844 30.828125 20.628906 C 30.828125 20.109375 30.632812 19.753906 30.3125 19.570312 L 30.339844 19.53125 C 30.457031 19.421875 30.601562 19.320312 30.730469 19.246094 C 31.035156 19.066406 31.300781 19.023438 31.496094 19.148438 C 31.699219 19.269531 31.800781 19.507812 31.800781 19.84375 C 31.800781 20.648438 31.230469 21.609375 30.527344 22.007812 Z M 30.527344 22.007812 " fill-opacity="1" fill-rule="nonzero"/><path fill="#143c3c" d="M 14.308594 31.265625 L 16.144531 30.21875 L 16.144531 28.984375 L 14.308594 30.042969 Z M 14.308594 31.265625 " fill-opacity="1" fill-rule="nonzero"/><g clip-path="url(#id2)"><path fill="#143c3c" d="M 33.703125 9.128906 C 33.703125 9.085938 33.683594 9.03125 33.683594 8.988281 C 33.683594 8.945312 33.664062 8.925781 33.664062 8.890625 C 33.664062 8.847656 33.644531 8.808594 33.621094 8.765625 C 33.597656 8.722656 33.601562 8.707031 33.578125 8.667969 C 33.558594 8.625 33.558594 8.605469 33.535156 8.570312 C 33.515625 8.550781 33.515625 8.507812 33.492188 8.492188 C 33.472656 8.472656 33.449219 8.429688 33.429688 8.410156 C 33.410156 8.394531 33.386719 8.367188 33.367188 8.332031 C 33.347656 8.3125 33.324219 8.289062 33.304688 8.253906 C 33.289062 8.234375 33.261719 8.210938 33.246094 8.191406 C 33.226562 8.171875 33.183594 8.148438 33.144531 8.128906 C 33.125 8.109375 33.101562 8.109375 33.101562 8.085938 C 33.058594 8.070312 32.175781 7.609375 32.089844 7.585938 C 31.742188 7.363281 31.324219 7.363281 30.878906 7.628906 L 30.164062 8.042969 L 30.164062 7.40625 C 30.164062 7.328125 30.164062 7.246094 30.144531 7.167969 C 30.144531 7.148438 30.144531 7.105469 30.125 7.089844 C 30.125 7.046875 30.105469 6.992188 30.105469 6.949219 C 30.105469 6.90625 30.089844 6.886719 30.089844 6.851562 C 30.089844 6.808594 30.070312 6.769531 30.046875 6.726562 C 30.027344 6.683594 30.027344 6.664062 30.003906 6.628906 C 29.976562 6.59375 29.984375 6.566406 29.957031 6.53125 C 29.941406 6.511719 29.941406 6.46875 29.914062 6.453125 C 29.898438 6.433594 29.871094 6.390625 29.855469 6.371094 C 29.835938 6.355469 29.808594 6.328125 29.792969 6.292969 C 29.773438 6.273438 29.75 6.25 29.730469 6.210938 C 29.710938 6.195312 29.6875 6.167969 29.667969 6.152344 C 29.648438 6.132812 29.605469 6.109375 29.570312 6.089844 C 29.550781 6.070312 29.527344 6.070312 29.527344 6.046875 C 29.484375 6.027344 28.601562 5.570312 28.511719 5.546875 C 28.167969 5.324219 27.746094 5.324219 27.304688 5.589844 L 26.597656 5.992188 L 26.597656 5.324219 C 26.597656 5.246094 26.597656 5.164062 26.582031 5.085938 C 26.582031 5.066406 26.582031 5.023438 26.5625 5.007812 C 26.5625 4.964844 26.542969 4.910156 26.542969 4.867188 C 26.542969 4.824219 26.523438 4.804688 26.523438 4.765625 C 26.523438 4.730469 26.507812 4.6875 26.480469 4.644531 C 26.464844 4.601562 26.464844 4.582031 26.4375 4.546875 C 26.421875 4.503906 26.421875 4.484375 26.394531 4.449219 C 26.375 4.429688 26.375 4.386719 26.351562 4.371094 C 26.332031 4.351562 26.308594 4.308594 26.289062 4.289062 C 26.273438 4.269531 26.246094 4.246094 26.230469 4.210938 C 26.210938 4.191406 26.183594 4.167969 26.167969 4.128906 C 26.148438 4.113281 26.125 4.085938 26.105469 4.070312 C 26.085938 4.050781 26.042969 4.027344 26.007812 4.007812 C 25.988281 3.988281 25.964844 3.988281 25.964844 3.964844 C 25.917969 3.945312 25.035156 3.488281 24.949219 3.464844 C 24.605469 3.242188 24.183594 3.242188 23.738281 3.503906 L 5.316406 14.058594 C 4.445312 14.558594 3.761719 15.839844 3.761719 16.984375 L 3.761719 27.765625 C 3.761719 28.488281 4.046875 29.007812 4.507812 29.167969 C 4.570312 29.210938 5.621094 29.730469 5.621094 29.730469 C 5.699219 29.75 5.800781 29.773438 5.90625 29.773438 C 6.128906 29.773438 6.347656 29.710938 6.589844 29.570312 L 7.320312 29.148438 L 7.320312 28.730469 L 6.429688 29.226562 C 6.386719 29.246094 6.367188 29.269531 6.332031 29.289062 C 6.332031 29.289062 6.3125 29.289062 6.289062 29.308594 C 6.269531 29.324219 6.226562 29.324219 6.207031 29.351562 L 6.1875 29.351562 C 6.046875 29.394531 5.90625 29.410156 5.804688 29.367188 C 5.789062 29.367188 5.761719 29.351562 5.742188 29.351562 C 5.726562 29.351562 5.726562 29.332031 5.699219 29.332031 C 5.675781 29.332031 5.683594 29.3125 5.65625 29.3125 C 5.417969 29.15625 5.273438 28.8125 5.273438 28.332031 L 5.273438 17.554688 C 5.273438 16.550781 5.878906 15.410156 6.628906 14.96875 L 25.074219 4.398438 C 25.253906 4.300781 25.5 4.199219 25.722656 4.277344 C 25.765625 4.296875 25.800781 4.296875 25.820312 4.320312 L 25.839844 4.339844 C 25.859375 4.355469 25.882812 4.382812 25.902344 4.398438 C 25.917969 4.398438 25.917969 4.417969 25.945312 4.441406 C 25.964844 4.460938 25.988281 4.484375 26.007812 4.503906 C 26.007812 4.523438 26.023438 4.523438 26.023438 4.546875 C 26.042969 4.566406 26.042969 4.589844 26.066406 4.625 C 26.066406 4.644531 26.085938 4.667969 26.085938 4.6875 C 26.105469 4.707031 26.105469 4.75 26.128906 4.765625 C 26.128906 4.785156 26.148438 4.808594 26.148438 4.828125 C 26.148438 4.871094 26.167969 4.890625 26.167969 4.925781 C 26.167969 4.945312 26.167969 4.96875 26.183594 4.988281 C 26.183594 5.03125 26.203125 5.066406 26.203125 5.109375 L 26.203125 6.226562 L 8.875 16.144531 C 8.003906 16.640625 7.320312 17.921875 7.320312 19.066406 L 7.320312 29.847656 C 7.320312 30.570312 7.601562 31.089844 8.066406 31.25 C 8.128906 31.292969 9.179688 31.8125 9.179688 31.8125 C 9.257812 31.832031 9.355469 31.855469 9.460938 31.855469 C 9.683594 31.855469 9.90625 31.792969 10.148438 31.652344 L 10.875 31.230469 L 10.875 30.789062 L 9.988281 31.285156 C 9.945312 31.304688 9.925781 31.328125 9.886719 31.347656 C 9.886719 31.347656 9.871094 31.347656 9.84375 31.363281 C 9.820312 31.382812 9.78125 31.382812 9.765625 31.40625 L 9.746094 31.40625 C 9.605469 31.449219 9.460938 31.46875 9.363281 31.425781 C 9.34375 31.425781 9.320312 31.40625 9.300781 31.40625 C 9.28125 31.40625 9.28125 31.390625 9.257812 31.390625 C 9.238281 31.390625 9.238281 31.371094 9.214844 31.371094 C 8.972656 31.210938 8.832031 30.867188 8.832031 30.390625 L 8.832031 24.964844 C 8.875 24.984375 8.914062 25.007812 8.957031 25.007812 C 9 25.007812 9.035156 24.988281 9.078125 24.964844 C 9.121094 24.921875 9.121094 24.886719 9.121094 24.84375 C 9.121094 24.800781 9.105469 24.761719 9.078125 24.71875 C 9.015625 24.660156 8.898438 24.660156 8.839844 24.71875 L 8.839844 21.898438 C 8.855469 21.878906 8.882812 21.878906 8.898438 21.855469 C 8.917969 21.835938 8.917969 21.8125 8.917969 21.792969 C 8.917969 21.773438 8.898438 21.75 8.898438 21.730469 C 8.882812 21.714844 8.855469 21.714844 8.839844 21.714844 L 8.839844 19.613281 C 8.839844 18.609375 9.441406 17.46875 10.191406 17.027344 L 11.222656 16.433594 C 11.222656 16.441406 11.226562 16.445312 11.242188 16.445312 C 11.285156 16.464844 11.320312 16.488281 11.363281 16.488281 C 11.40625 16.488281 11.445312 16.472656 11.488281 16.445312 C 11.53125 16.402344 11.53125 16.367188 11.53125 16.324219 C 11.53125 16.304688 11.53125 16.289062 11.519531 16.269531 L 14.476562 14.578125 C 14.476562 14.589844 14.488281 14.609375 14.507812 14.621094 C 14.527344 14.640625 14.550781 14.640625 14.570312 14.640625 C 14.585938 14.640625 14.613281 14.621094 14.628906 14.621094 C 14.648438 14.601562 14.648438 14.578125 14.648438 14.558594 C 14.648438 14.542969 14.628906 14.515625 14.628906 14.5 L 14.625 14.492188 L 18.625 12.203125 C 18.640625 12.207031 18.644531 12.214844 18.644531 12.214844 C 18.6875 12.195312 18.707031 12.195312 18.726562 12.171875 C 18.738281 12.160156 18.742188 12.140625 18.742188 12.128906 L 21.355469 10.632812 C 21.375 10.652344 21.375 10.671875 21.394531 10.691406 C 21.410156 10.707031 21.4375 10.707031 21.453125 10.707031 C 21.472656 10.707031 21.5 10.691406 21.515625 10.691406 C 21.535156 10.671875 21.535156 10.648438 21.535156 10.628906 C 21.535156 10.609375 21.515625 10.585938 21.515625 10.566406 C 21.511719 10.5625 21.503906 10.554688 21.5 10.554688 L 26.214844 7.855469 C 26.234375 7.867188 26.265625 7.867188 26.285156 7.867188 C 26.304688 7.867188 26.328125 7.847656 26.347656 7.847656 C 26.363281 7.828125 26.363281 7.804688 26.363281 7.785156 C 26.363281 7.78125 26.363281 7.773438 26.363281 7.769531 L 26.882812 7.472656 C 26.902344 7.488281 26.914062 7.480469 26.933594 7.46875 C 26.945312 7.457031 26.945312 7.449219 26.953125 7.4375 L 28.648438 6.464844 C 28.828125 6.367188 29.074219 6.261719 29.296875 6.339844 C 29.339844 6.359375 29.378906 6.359375 29.398438 6.382812 L 29.414062 6.402344 C 29.433594 6.421875 29.457031 6.445312 29.476562 6.464844 C 29.496094 6.464844 29.496094 6.480469 29.519531 6.507812 C 29.539062 6.523438 29.5625 6.550781 29.582031 6.566406 C 29.582031 6.585938 29.601562 6.585938 29.601562 6.609375 C 29.617188 6.628906 29.617188 6.652344 29.644531 6.691406 C 29.644531 6.707031 29.664062 6.734375 29.664062 6.75 C 29.679688 6.769531 29.679688 6.8125 29.707031 6.832031 C 29.707031 6.851562 29.722656 6.875 29.722656 6.890625 C 29.722656 6.933594 29.742188 6.953125 29.742188 6.992188 C 29.742188 7.007812 29.742188 7.035156 29.761719 7.050781 C 29.761719 7.09375 29.78125 7.132812 29.78125 7.175781 L 29.78125 8.28125 L 27.148438 9.789062 C 27.148438 9.769531 27.148438 9.757812 27.148438 9.742188 C 27.148438 9.699219 27.128906 9.660156 27.105469 9.617188 C 27.042969 9.554688 26.925781 9.554688 26.863281 9.617188 C 26.820312 9.660156 26.820312 9.699219 26.820312 9.742188 C 26.820312 9.785156 26.839844 9.820312 26.863281 9.863281 C 26.894531 9.875 26.925781 9.894531 26.957031 9.898438 L 20.261719 13.734375 C 20.203125 13.691406 20.097656 13.695312 20.039062 13.75 C 19.996094 13.792969 19.996094 13.832031 19.996094 13.875 C 19.996094 13.878906 19.996094 13.878906 19.996094 13.886719 L 19.523438 14.160156 C 19.515625 14.15625 19.515625 14.144531 19.515625 14.136719 C 19.472656 14.09375 19.417969 14.09375 19.390625 14.136719 C 19.375 14.15625 19.375 14.179688 19.375 14.199219 C 19.375 14.210938 19.386719 14.230469 19.390625 14.242188 L 12.671875 18.085938 C 12.671875 18.085938 12.671875 18.085938 12.667969 18.085938 C 12.605469 18.027344 12.488281 18.027344 12.425781 18.085938 C 12.382812 18.128906 12.382812 18.167969 12.382812 18.210938 C 12.382812 18.222656 12.390625 18.242188 12.390625 18.253906 C 12.234375 18.351562 12.09375 18.46875 11.957031 18.609375 C 11.914062 18.570312 11.859375 18.570312 11.839844 18.609375 C 11.820312 18.625 11.820312 18.652344 11.820312 18.667969 C 11.820312 18.6875 11.839844 18.710938 11.839844 18.730469 C 11.839844 18.730469 11.839844 18.730469 11.84375 18.730469 C 11.445312 19.183594 11.128906 19.800781 10.992188 20.433594 C 10.96875 20.433594 10.945312 20.4375 10.933594 20.453125 C 10.914062 20.46875 10.914062 20.496094 10.914062 20.511719 C 10.914062 20.53125 10.933594 20.554688 10.933594 20.574219 C 10.945312 20.585938 10.949219 20.585938 10.960938 20.59375 C 10.933594 20.777344 10.914062 20.960938 10.914062 21.136719 L 10.914062 21.5 C 10.914062 21.515625 10.894531 21.542969 10.894531 21.558594 C 10.894531 21.578125 10.914062 21.601562 10.914062 21.621094 L 10.914062 30.765625 L 10.894531 30.765625 L 10.894531 30.789062 L 10.914062 30.777344 L 10.914062 31.886719 C 10.914062 32.609375 11.195312 33.128906 11.660156 33.289062 C 11.722656 33.332031 12.773438 33.851562 12.773438 33.851562 C 12.851562 33.871094 12.949219 33.894531 13.054688 33.894531 C 13.277344 33.894531 13.5 33.832031 13.742188 33.691406 L 32.183594 23.132812 C 33.054688 22.632812 33.738281 21.351562 33.738281 20.207031 L 33.738281 9.429688 C 33.738281 9.367188 33.738281 9.289062 33.738281 9.207031 C 33.71875 9.1875 33.71875 9.152344 33.703125 9.128906 Z M 31.960938 22.808594 L 13.519531 33.367188 C 13.476562 33.386719 13.457031 33.410156 13.421875 33.429688 C 13.421875 33.429688 13.402344 33.429688 13.378906 33.449219 C 13.351562 33.464844 13.316406 33.464844 13.296875 33.492188 L 13.277344 33.492188 C 13.136719 33.53125 12.996094 33.550781 12.894531 33.507812 C 12.878906 33.507812 12.851562 33.492188 12.832031 33.492188 C 12.816406 33.492188 12.816406 33.472656 12.789062 33.472656 C 12.773438 33.472656 12.773438 33.453125 12.746094 33.453125 C 12.507812 33.292969 12.363281 32.953125 12.363281 32.472656 L 12.363281 21.695312 C 12.363281 20.691406 12.96875 19.550781 13.71875 19.109375 L 32.164062 8.546875 C 32.34375 8.449219 32.589844 8.34375 32.8125 8.421875 C 32.855469 8.441406 32.890625 8.441406 32.910156 8.464844 L 32.929688 8.484375 C 32.949219 8.503906 32.972656 8.527344 32.992188 8.546875 C 33.007812 8.546875 33.007812 8.566406 33.035156 8.589844 C 33.054688 8.605469 33.078125 8.632812 33.097656 8.648438 C 33.097656 8.667969 33.113281 8.667969 33.113281 8.691406 C 33.132812 8.710938 33.132812 8.734375 33.15625 8.773438 C 33.15625 8.792969 33.175781 8.816406 33.175781 8.832031 C 33.195312 8.851562 33.195312 8.894531 33.21875 8.914062 C 33.21875 8.933594 33.238281 8.957031 33.238281 8.976562 C 33.238281 9.019531 33.257812 9.035156 33.257812 9.074219 C 33.257812 9.089844 33.257812 9.117188 33.273438 9.132812 C 33.273438 9.175781 33.292969 9.214844 33.292969 9.257812 L 33.292969 20.230469 L 33.3125 20.230469 C 33.3125 21.230469 32.707031 22.367188 31.960938 22.808594 Z M 31.960938 22.808594 " fill-opacity="1" fill-rule="nonzero"/></g><path fill="#143c3c" d="M 16.910156 29.777344 L 20.628906 27.640625 L 20.628906 26.417969 L 16.910156 28.542969 Z M 16.910156 29.777344 " fill-opacity="1" fill-rule="nonzero"/><path fill="#143c3c" d="M 21.398438 27.199219 L 23.234375 26.152344 L 23.234375 24.917969 L 21.398438 25.976562 Z M 21.398438 27.199219 " fill-opacity="1" fill-rule="nonzero"/><path fill="#143c3c" d="M 24.445312 11.03125 C 24.460938 11.03125 24.488281 11.015625 24.503906 11.015625 C 24.523438 10.996094 24.523438 10.972656 24.523438 10.953125 C 24.523438 10.933594 24.503906 10.910156 24.503906 10.890625 C 24.460938 10.847656 24.40625 10.847656 24.382812 10.890625 C 24.363281 10.910156 24.363281 10.933594 24.363281 10.953125 C 24.363281 10.972656 24.382812 10.996094 24.382812 11.015625 C 24.382812 11.03125 24.40625 11.03125 24.445312 11.03125 Z M 24.445312 11.03125 " fill-opacity="1" fill-rule="nonzero"/><path fill="#143c3c" d="M 23.78125 10.773438 C 23.800781 10.773438 23.828125 10.757812 23.84375 10.757812 C 23.863281 10.738281 23.863281 10.714844 23.863281 10.695312 C 23.863281 10.675781 23.84375 10.652344 23.84375 10.632812 C 23.800781 10.589844 23.746094 10.589844 23.722656 10.632812 C 23.703125 10.652344 23.703125 10.675781 23.703125 10.695312 C 23.703125 10.714844 23.722656 10.738281 23.722656 10.757812 C 23.738281 10.773438 23.757812 10.773438 23.78125 10.773438 Z M 23.78125 10.773438 " fill-opacity="1" fill-rule="nonzero"/><path fill="#143c3c" d="M 24.566406 9.8125 C 24.585938 9.8125 24.609375 9.796875 24.628906 9.796875 C 24.648438 9.777344 24.648438 9.753906 24.648438 9.734375 C 24.648438 9.714844 24.628906 9.691406 24.628906 9.671875 C 24.585938 9.628906 24.53125 9.628906 24.503906 9.671875 C 24.488281 9.691406 24.488281 9.714844 24.488281 9.734375 C 24.488281 9.753906 24.503906 9.777344 24.503906 9.796875 C 24.53125 9.8125 24.550781 9.8125 24.566406 9.8125 Z M 24.566406 9.8125 " fill-opacity="1" fill-rule="nonzero"/><path fill="#143c3c" d="M 28.019531 8.792969 C 28.039062 8.792969 28.0625 8.773438 28.082031 8.773438 C 28.101562 8.753906 28.101562 8.730469 28.101562 8.710938 C 28.101562 8.691406 28.082031 8.667969 28.082031 8.648438 C 28.039062 8.605469 27.984375 8.605469 27.957031 8.648438 C 27.9375 8.667969 27.9375 8.691406 27.9375 8.710938 C 27.9375 8.730469 27.957031 8.753906 27.957031 8.773438 C 27.964844 8.765625 28 8.792969 28.019531 8.792969 Z M 28.019531 8.792969 " fill-opacity="1" fill-rule="nonzero"/><path fill="#143c3c" d="M 20.730469 12.136719 C 20.75 12.136719 20.777344 12.117188 20.792969 12.117188 C 20.8125 12.097656 20.8125 12.074219 20.8125 12.054688 C 20.8125 12.035156 20.792969 12.011719 20.792969 11.992188 C 20.75 11.953125 20.695312 11.953125 20.671875 11.992188 C 20.652344 12.011719 20.652344 12.035156 20.652344 12.054688 C 20.652344 12.074219 20.671875 12.097656 20.671875 12.117188 C 20.6875 12.136719 20.707031 12.136719 20.730469 12.136719 Z M 20.730469 12.136719 " fill-opacity="1" fill-rule="nonzero"/><path fill="#143c3c" d="M 22.425781 10.714844 C 22.441406 10.714844 22.46875 10.695312 22.484375 10.695312 C 22.503906 10.675781 22.503906 10.652344 22.503906 10.632812 C 22.503906 10.617188 22.484375 10.589844 22.484375 10.574219 C 22.441406 10.53125 22.386719 10.53125 22.363281 10.574219 C 22.34375 10.589844 22.34375 10.617188 22.34375 10.632812 C 22.34375 10.652344 22.363281 10.675781 22.363281 10.695312 C 22.363281 10.714844 22.40625 10.714844 22.425781 10.714844 Z M 22.425781 10.714844 " fill-opacity="1" fill-rule="nonzero"/><path fill="#143c3c" d="M 23.597656 11.753906 C 23.617188 11.753906 23.640625 11.738281 23.660156 11.738281 C 23.679688 11.71875 23.679688 11.695312 23.679688 11.675781 C 23.679688 11.65625 23.660156 11.632812 23.660156 11.613281 C 23.617188 11.570312 23.5625 11.570312 23.535156 11.613281 C 23.519531 11.632812 23.519531 11.65625 23.519531 11.675781 C 23.519531 11.695312 23.535156 11.71875 23.535156 11.738281 C 23.535156 11.738281 23.578125 11.753906 23.597656 11.753906 Z M 23.597656 11.753906 " fill-opacity="1" fill-rule="nonzero"/><path fill="#143c3c" d="M 21.054688 13.015625 C 21.070312 13.035156 21.097656 13.035156 21.117188 13.035156 C 21.132812 13.035156 21.160156 13.015625 21.175781 13.015625 C 21.195312 13 21.195312 12.972656 21.195312 12.957031 C 21.195312 12.9375 21.175781 12.914062 21.175781 12.894531 C 21.132812 12.851562 21.078125 12.851562 21.054688 12.894531 C 21.035156 12.914062 21.035156 12.9375 21.035156 12.957031 C 21.035156 12.972656 21.035156 13 21.054688 13.015625 Z M 21.054688 13.015625 " fill-opacity="1" fill-rule="nonzero"/><path fill="#143c3c" d="M 20.144531 12.65625 C 20.164062 12.65625 20.1875 12.636719 20.207031 12.636719 C 20.226562 12.617188 20.226562 12.59375 20.226562 12.574219 C 20.226562 12.558594 20.207031 12.53125 20.207031 12.515625 C 20.164062 12.472656 20.109375 12.472656 20.082031 12.515625 C 20.066406 12.53125 20.066406 12.558594 20.066406 12.574219 C 20.066406 12.59375 20.082031 12.617188 20.082031 12.636719 C 20.101562 12.636719 20.128906 12.65625 20.144531 12.65625 Z M 20.144531 12.65625 " fill-opacity="1" fill-rule="nonzero"/><path fill="#143c3c" d="M 26.382812 8.96875 C 26.402344 8.96875 26.425781 8.949219 26.445312 8.949219 C 26.464844 8.933594 26.464844 8.90625 26.464844 8.890625 C 26.464844 8.871094 26.445312 8.847656 26.445312 8.828125 C 26.402344 8.785156 26.347656 8.785156 26.320312 8.828125 C 26.304688 8.847656 26.304688 8.871094 26.304688 8.890625 C 26.304688 8.90625 26.320312 8.933594 26.320312 8.949219 C 26.347656 8.96875 26.363281 8.96875 26.382812 8.96875 Z M 26.382812 8.96875 " fill-opacity="1" fill-rule="nonzero"/><path fill="#143c3c" d="M 28.410156 7.363281 C 28.425781 7.363281 28.453125 7.347656 28.46875 7.347656 C 28.488281 7.328125 28.488281 7.304688 28.488281 7.285156 C 28.488281 7.265625 28.46875 7.242188 28.46875 7.222656 C 28.425781 7.179688 28.371094 7.179688 28.347656 7.222656 C 28.328125 7.242188 28.328125 7.265625 28.328125 7.285156 C 28.328125 7.304688 28.347656 7.328125 28.347656 7.347656 C 28.367188 7.347656 28.382812 7.363281 28.410156 7.363281 Z M 28.410156 7.363281 " fill-opacity="1" fill-rule="nonzero"/><path fill="#143c3c" d="M 20.851562 11.375 C 20.894531 11.375 20.929688 11.355469 20.972656 11.332031 C 21.015625 11.289062 21.015625 11.253906 21.015625 11.210938 C 21.015625 11.167969 20.996094 11.128906 20.972656 11.085938 C 20.910156 11.027344 20.792969 11.027344 20.730469 11.085938 C 20.6875 11.128906 20.6875 11.167969 20.6875 11.210938 C 20.6875 11.253906 20.707031 11.289062 20.730469 11.332031 C 20.769531 11.351562 20.8125 11.375 20.851562 11.375 Z M 20.851562 11.375 " fill-opacity="1" fill-rule="nonzero"/><path fill="#143c3c" d="M 29.191406 8.210938 C 29.234375 8.210938 29.273438 8.191406 29.316406 8.167969 C 29.359375 8.125 29.359375 8.085938 29.359375 8.042969 C 29.359375 8 29.339844 7.964844 29.316406 7.921875 C 29.253906 7.859375 29.136719 7.859375 29.074219 7.921875 C 29.03125 7.964844 29.03125 8 29.03125 8.042969 C 29.03125 8.085938 29.050781 8.125 29.074219 8.167969 C 29.09375 8.191406 29.15625 8.210938 29.191406 8.210938 Z M 29.191406 8.210938 " fill-opacity="1" fill-rule="nonzero"/><path fill="#143c3c" d="M 22.164062 12.152344 C 22.207031 12.152344 22.246094 12.136719 22.289062 12.109375 C 22.332031 12.066406 22.332031 12.03125 22.332031 11.988281 C 22.332031 11.945312 22.3125 11.910156 22.289062 11.867188 C 22.226562 11.804688 22.109375 11.804688 22.046875 11.867188 C 22.003906 11.910156 22.003906 11.945312 22.003906 11.988281 C 22.003906 12.03125 22.023438 12.066406 22.046875 12.109375 C 22.066406 12.136719 22.121094 12.152344 22.164062 12.152344 Z M 22.164062 12.152344 " fill-opacity="1" fill-rule="nonzero"/><path fill="#143c3c" d="M 25.277344 10.46875 C 25.320312 10.46875 25.359375 10.449219 25.402344 10.425781 C 25.445312 10.382812 25.445312 10.347656 25.445312 10.304688 C 25.445312 10.261719 25.425781 10.222656 25.402344 10.179688 C 25.339844 10.121094 25.222656 10.121094 25.160156 10.179688 C 25.117188 10.199219 25.097656 10.261719 25.097656 10.304688 C 25.097656 10.347656 25.117188 10.382812 25.140625 10.425781 C 25.199219 10.449219 25.234375 10.46875 25.277344 10.46875 Z M 25.277344 10.46875 " fill-opacity="1" fill-rule="nonzero"/><path fill="#143c3c" d="M 18.507812 13.679688 C 18.527344 13.679688 18.550781 13.660156 18.570312 13.660156 C 18.589844 13.640625 18.589844 13.617188 18.589844 13.597656 C 18.589844 13.582031 18.570312 13.554688 18.570312 13.539062 C 18.527344 13.496094 18.472656 13.496094 18.449219 13.539062 C 18.429688 13.554688 18.429688 13.582031 18.429688 13.597656 C 18.429688 13.617188 18.449219 13.640625 18.449219 13.660156 C 18.464844 13.679688 18.492188 13.679688 18.507812 13.679688 Z M 18.507812 13.679688 " fill-opacity="1" fill-rule="nonzero"/><path fill="#143c3c" d="M 16.367188 14.65625 C 16.382812 14.65625 16.410156 14.640625 16.429688 14.640625 C 16.445312 14.621094 16.445312 14.597656 16.445312 14.578125 C 16.445312 14.558594 16.429688 14.535156 16.429688 14.515625 C 16.382812 14.472656 16.328125 14.472656 16.304688 14.515625 C 16.285156 14.535156 16.285156 14.558594 16.285156 14.578125 C 16.285156 14.597656 16.285156 14.621094 16.304688 14.640625 C 16.328125 14.640625 16.347656 14.65625 16.367188 14.65625 Z M 16.367188 14.65625 " fill-opacity="1" fill-rule="nonzero"/><path fill="#143c3c" d="M 19.097656 12.390625 C 19.113281 12.390625 19.140625 12.375 19.15625 12.375 C 19.175781 12.355469 19.175781 12.332031 19.175781 12.3125 C 19.175781 12.292969 19.15625 12.269531 19.15625 12.25 C 19.113281 12.207031 19.058594 12.207031 19.035156 12.25 C 19.015625 12.269531 19.015625 12.292969 19.015625 12.3125 C 19.015625 12.332031 19.035156 12.355469 19.035156 12.375 C 19.050781 12.375 19.070312 12.390625 19.097656 12.390625 Z M 19.097656 12.390625 " fill-opacity="1" fill-rule="nonzero"/><path fill="#143c3c" d="M 17.679688 13.554688 C 17.699219 13.554688 17.726562 13.539062 17.742188 13.539062 C 17.761719 13.519531 17.761719 13.496094 17.761719 13.476562 C 17.761719 13.457031 17.742188 13.433594 17.742188 13.414062 C 17.699219 13.371094 17.644531 13.371094 17.621094 13.414062 C 17.601562 13.433594 17.601562 13.457031 17.601562 13.476562 C 17.601562 13.496094 17.621094 13.519531 17.621094 13.539062 C 17.621094 13.539062 17.636719 13.554688 17.679688 13.554688 Z M 17.679688 13.554688 " fill-opacity="1" fill-rule="nonzero"/><path fill="#143c3c" d="M 17.921875 14.261719 C 17.941406 14.261719 17.964844 14.242188 17.984375 14.242188 C 18.003906 14.222656 18.003906 14.199219 18.003906 14.179688 C 18.003906 14.160156 17.984375 14.136719 17.984375 14.121094 C 17.941406 14.078125 17.886719 14.078125 17.859375 14.121094 C 17.84375 14.136719 17.84375 14.160156 17.84375 14.179688 C 17.84375 14.199219 17.859375 14.222656 17.859375 14.242188 C 17.878906 14.261719 17.902344 14.261719 17.921875 14.261719 Z M 17.921875 14.261719 " fill-opacity="1" fill-rule="nonzero"/><path fill="#143c3c" d="M 17.09375 14.78125 C 17.113281 14.78125 17.136719 14.761719 17.15625 14.761719 C 17.175781 14.742188 17.175781 14.71875 17.175781 14.699219 C 17.175781 14.683594 17.15625 14.65625 17.15625 14.640625 C 17.113281 14.597656 17.058594 14.597656 17.03125 14.640625 C 17.015625 14.65625 17.015625 14.683594 17.015625 14.699219 C 17.015625 14.71875 17.03125 14.742188 17.03125 14.761719 C 17.03125 14.78125 17.050781 14.78125 17.09375 14.78125 Z M 17.09375 14.78125 " fill-opacity="1" fill-rule="nonzero"/><path fill="#143c3c" d="M 16.632812 13.695312 C 16.675781 13.695312 16.710938 13.679688 16.753906 13.652344 C 16.796875 13.609375 16.796875 13.574219 16.796875 13.53125 C 16.796875 13.488281 16.78125 13.453125 16.753906 13.410156 C 16.695312 13.347656 16.578125 13.347656 16.515625 13.410156 C 16.472656 13.453125 16.472656 13.488281 16.472656 13.53125 C 16.472656 13.574219 16.488281 13.609375 16.515625 13.652344 C 16.550781 13.679688 16.589844 13.695312 16.632812 13.695312 Z M 16.632812 13.695312 " fill-opacity="1" fill-rule="nonzero"/><path fill="#143c3c" d="M 8.894531 21.070312 C 8.875 21.089844 8.875 21.113281 8.875 21.132812 C 8.875 21.148438 8.894531 21.175781 8.894531 21.191406 C 8.914062 21.210938 8.9375 21.210938 8.957031 21.210938 C 8.972656 21.210938 9 21.191406 9.015625 21.191406 C 9.035156 21.175781 9.035156 21.148438 9.035156 21.132812 C 9.035156 21.113281 9.015625 21.089844 9.015625 21.070312 C 8.972656 21.046875 8.914062 21.046875 8.894531 21.070312 Z M 8.894531 21.070312 " fill-opacity="1" fill-rule="nonzero"/><path fill="#143c3c" d="M 9.722656 20.304688 C 9.738281 20.285156 9.738281 20.261719 9.738281 20.242188 C 9.738281 20.226562 9.722656 20.199219 9.722656 20.183594 C 9.679688 20.140625 9.621094 20.140625 9.597656 20.183594 C 9.578125 20.199219 9.578125 20.226562 9.578125 20.242188 C 9.578125 20.261719 9.597656 20.285156 9.597656 20.304688 C 9.617188 20.324219 9.640625 20.324219 9.660156 20.324219 C 9.683594 20.328125 9.703125 20.304688 9.722656 20.304688 Z M 9.722656 20.304688 " fill-opacity="1" fill-rule="nonzero"/><path fill="#143c3c" d="M 8.957031 18.882812 C 8.9375 18.902344 8.9375 18.925781 8.9375 18.945312 C 8.9375 18.964844 8.957031 18.988281 8.957031 19.007812 C 8.972656 19.023438 9 19.023438 9.015625 19.023438 C 9.035156 19.023438 9.058594 19.007812 9.078125 19.007812 C 9.097656 18.988281 9.097656 18.964844 9.097656 18.945312 C 9.097656 18.925781 9.078125 18.902344 9.078125 18.882812 C 9.054688 18.847656 8.992188 18.847656 8.957031 18.882812 Z M 8.957031 18.882812 " fill-opacity="1" fill-rule="nonzero"/><path fill="#143c3c" d="M 11.625 17.039062 C 11.640625 17.039062 11.667969 17.023438 11.683594 17.023438 C 11.703125 17.003906 11.703125 16.980469 11.703125 16.960938 C 11.703125 16.941406 11.683594 16.917969 11.683594 16.898438 C 11.640625 16.855469 11.605469 16.855469 11.5625 16.898438 C 11.542969 16.917969 11.542969 16.941406 11.542969 16.960938 C 11.542969 16.980469 11.542969 17.003906 11.5625 17.023438 C 11.582031 17.023438 11.597656 17.039062 11.625 17.039062 Z M 11.625 17.039062 " fill-opacity="1" fill-rule="nonzero"/><path fill="#143c3c" d="M 12.671875 16.980469 C 12.691406 16.980469 12.714844 16.960938 12.734375 16.960938 C 12.753906 16.941406 12.753906 16.917969 12.753906 16.898438 C 12.753906 16.882812 12.734375 16.855469 12.734375 16.839844 C 12.691406 16.796875 12.636719 16.796875 12.613281 16.839844 C 12.59375 16.855469 12.59375 16.882812 12.59375 16.898438 C 12.59375 16.917969 12.613281 16.941406 12.613281 16.960938 C 12.613281 16.960938 12.628906 16.980469 12.671875 16.980469 Z M 12.671875 16.980469 " fill-opacity="1" fill-rule="nonzero"/><path fill="#143c3c" d="M 15.519531 15.417969 C 15.539062 15.417969 15.5625 15.398438 15.582031 15.398438 C 15.601562 15.378906 15.601562 15.355469 15.601562 15.339844 C 15.601562 15.320312 15.582031 15.296875 15.582031 15.277344 C 15.539062 15.234375 15.484375 15.234375 15.457031 15.277344 C 15.441406 15.296875 15.441406 15.320312 15.441406 15.339844 C 15.441406 15.355469 15.457031 15.378906 15.457031 15.398438 C 15.476562 15.417969 15.5 15.417969 15.519531 15.417969 Z M 15.519531 15.417969 " fill-opacity="1" fill-rule="nonzero"/><path fill="#143c3c" d="M 9.214844 28.179688 C 9.195312 28.199219 9.195312 28.222656 9.195312 28.242188 C 9.195312 28.261719 9.214844 28.285156 9.214844 28.304688 C 9.234375 28.320312 9.257812 28.320312 9.277344 28.320312 C 9.296875 28.320312 9.320312 28.304688 9.339844 28.304688 C 9.355469 28.285156 9.355469 28.261719 9.355469 28.242188 C 9.355469 28.222656 9.339844 28.199219 9.339844 28.179688 C 9.320312 28.136719 9.257812 28.136719 9.214844 28.179688 Z M 9.214844 28.179688 " fill-opacity="1" fill-rule="nonzero"/><path fill="#143c3c" d="M 9.074219 29.460938 C 9.054688 29.480469 9.054688 29.503906 9.054688 29.523438 C 9.054688 29.539062 9.074219 29.566406 9.074219 29.582031 C 9.089844 29.601562 9.117188 29.601562 9.132812 29.601562 C 9.152344 29.601562 9.179688 29.582031 9.195312 29.582031 C 9.214844 29.566406 9.214844 29.539062 9.214844 29.523438 C 9.214844 29.503906 9.195312 29.480469 9.195312 29.460938 C 9.179688 29.441406 9.117188 29.441406 9.074219 29.460938 Z M 9.074219 29.460938 " fill-opacity="1" fill-rule="nonzero"/><path fill="#143c3c" d="M 9.074219 29.917969 C 9.054688 29.9375 9.054688 29.960938 9.054688 29.980469 C 9.054688 30 9.074219 30.023438 9.074219 30.042969 C 9.089844 30.0625 9.117188 30.0625 9.132812 30.0625 C 9.152344 30.0625 9.179688 30.042969 9.195312 30.042969 C 9.214844 30.023438 9.214844 30 9.214844 29.980469 C 9.214844 29.960938 9.195312 29.9375 9.195312 29.917969 C 9.179688 29.882812 9.117188 29.882812 9.074219 29.917969 Z M 9.074219 29.917969 " fill-opacity="1" fill-rule="nonzero"/><path fill="#143c3c" d="M 9.597656 30.21875 C 9.617188 30.238281 9.640625 30.238281 9.660156 30.238281 C 9.679688 30.238281 9.703125 30.21875 9.722656 30.21875 C 9.738281 30.203125 9.738281 30.175781 9.738281 30.160156 C 9.738281 30.140625 9.722656 30.117188 9.722656 30.097656 C 9.703125 30.078125 9.640625 30.078125 9.597656 30.097656 C 9.578125 30.117188 9.578125 30.140625 9.578125 30.160156 C 9.578125 30.183594 9.597656 30.203125 9.597656 30.21875 Z M 9.597656 30.21875 " fill-opacity="1" fill-rule="nonzero"/><path fill="#143c3c" d="M 10.128906 29.601562 C 10.109375 29.621094 10.109375 29.644531 10.109375 29.664062 C 10.109375 29.679688 10.128906 29.707031 10.128906 29.722656 C 10.148438 29.742188 10.171875 29.742188 10.191406 29.742188 C 10.210938 29.742188 10.234375 29.722656 10.253906 29.722656 C 10.269531 29.707031 10.269531 29.679688 10.269531 29.664062 C 10.269531 29.644531 10.253906 29.621094 10.253906 29.601562 C 10.226562 29.566406 10.164062 29.566406 10.128906 29.601562 Z M 10.128906 29.601562 " fill-opacity="1" fill-rule="nonzero"/><path fill="#143c3c" d="M 9.214844 27.199219 C 9.195312 27.21875 9.195312 27.242188 9.195312 27.261719 C 9.195312 27.28125 9.214844 27.304688 9.214844 27.324219 C 9.234375 27.339844 9.257812 27.339844 9.277344 27.339844 C 9.296875 27.339844 9.320312 27.324219 9.339844 27.324219 C 9.355469 27.304688 9.355469 27.28125 9.355469 27.261719 C 9.355469 27.242188 9.339844 27.21875 9.339844 27.199219 C 9.320312 27.175781 9.257812 27.175781 9.214844 27.199219 Z M 9.214844 27.199219 " fill-opacity="1" fill-rule="nonzero"/><path fill="#143c3c" d="M 10.710938 23.53125 C 10.691406 23.550781 10.691406 23.574219 10.691406 23.59375 C 10.691406 23.613281 10.710938 23.636719 10.710938 23.65625 C 10.726562 23.671875 10.753906 23.671875 10.769531 23.671875 C 10.789062 23.671875 10.8125 23.65625 10.832031 23.65625 C 10.851562 23.636719 10.851562 23.613281 10.851562 23.59375 C 10.851562 23.574219 10.832031 23.550781 10.832031 23.53125 C 10.8125 23.488281 10.753906 23.488281 10.710938 23.53125 Z M 10.710938 23.53125 " fill-opacity="1" fill-rule="nonzero"/><path fill="#143c3c" d="M 10.449219 27.597656 C 10.429688 27.617188 10.429688 27.640625 10.429688 27.660156 C 10.429688 27.679688 10.449219 27.703125 10.449219 27.722656 C 10.46875 27.738281 10.492188 27.738281 10.511719 27.738281 C 10.53125 27.738281 10.554688 27.722656 10.574219 27.722656 C 10.59375 27.703125 10.59375 27.679688 10.59375 27.660156 C 10.59375 27.640625 10.574219 27.617188 10.574219 27.597656 C 10.546875 27.554688 10.488281 27.554688 10.449219 27.597656 Z M 10.449219 27.597656 " fill-opacity="1" fill-rule="nonzero"/><path fill="#143c3c" d="M 15.191406 16.203125 C 15.210938 16.203125 15.234375 16.183594 15.253906 16.183594 C 15.273438 16.164062 15.273438 16.140625 15.273438 16.121094 C 15.273438 16.101562 15.253906 16.078125 15.253906 16.0625 C 15.210938 16.019531 15.15625 16.019531 15.132812 16.0625 C 15.113281 16.078125 15.113281 16.101562 15.113281 16.121094 C 15.113281 16.140625 15.132812 16.164062 15.132812 16.183594 C 15.15625 16.183594 15.175781 16.203125 15.191406 16.203125 Z M 15.191406 16.203125 " fill-opacity="1" fill-rule="nonzero"/><path fill="#143c3c" d="M 10.449219 17.164062 C 10.46875 17.164062 10.492188 17.144531 10.511719 17.144531 C 10.53125 17.125 10.53125 17.101562 10.53125 17.082031 C 10.53125 17.066406 10.511719 17.039062 10.511719 17.023438 C 10.46875 16.980469 10.414062 16.980469 10.386719 17.023438 C 10.371094 17.039062 10.371094 17.066406 10.371094 17.082031 C 10.371094 17.101562 10.386719 17.125 10.386719 17.144531 C 10.40625 17.164062 10.429688 17.164062 10.449219 17.164062 Z M 10.449219 17.164062 " fill-opacity="1" fill-rule="nonzero"/><path fill="#143c3c" d="M 13.644531 17.199219 C 13.625 17.21875 13.625 17.242188 13.625 17.261719 C 13.625 17.28125 13.625 17.304688 13.644531 17.320312 C 13.660156 17.339844 13.6875 17.339844 13.703125 17.339844 C 13.722656 17.339844 13.746094 17.320312 13.765625 17.320312 C 13.785156 17.304688 13.785156 17.28125 13.785156 17.261719 C 13.785156 17.242188 13.765625 17.21875 13.765625 17.199219 C 13.742188 17.179688 13.679688 17.179688 13.644531 17.199219 Z M 13.644531 17.199219 " fill-opacity="1" fill-rule="nonzero"/><path fill="#143c3c" d="M 12.730469 17.464844 C 12.710938 17.480469 12.710938 17.507812 12.710938 17.523438 C 12.710938 17.542969 12.730469 17.566406 12.730469 17.585938 C 12.746094 17.605469 12.773438 17.605469 12.789062 17.605469 C 12.808594 17.605469 12.832031 17.585938 12.851562 17.585938 C 12.871094 17.566406 12.871094 17.542969 12.871094 17.523438 C 12.871094 17.507812 12.851562 17.480469 12.851562 17.464844 C 12.816406 17.421875 12.753906 17.421875 12.730469 17.464844 Z M 12.730469 17.464844 " fill-opacity="1" fill-rule="nonzero"/><path fill="#143c3c" d="M 10.128906 18.0625 C 10.148438 18.0625 10.171875 18.042969 10.191406 18.042969 C 10.210938 18.027344 10.210938 18.003906 10.210938 17.984375 C 10.210938 17.964844 10.191406 17.941406 10.191406 17.921875 C 10.148438 17.878906 10.089844 17.878906 10.066406 17.921875 C 10.046875 17.941406 10.046875 17.964844 10.046875 17.984375 C 10.046875 18.003906 10.066406 18.027344 10.066406 18.042969 C 10.085938 18.0625 10.105469 18.0625 10.128906 18.0625 Z M 10.128906 18.0625 " fill-opacity="1" fill-rule="nonzero"/><path fill="#143c3c" d="M 11.035156 19.105469 C 11.054688 19.105469 11.078125 19.085938 11.097656 19.085938 C 11.117188 19.066406 11.117188 19.042969 11.117188 19.023438 C 11.117188 19.007812 11.097656 18.980469 11.097656 18.964844 C 11.054688 18.921875 11 18.921875 10.976562 18.964844 C 10.957031 18.980469 10.957031 19.007812 10.957031 19.023438 C 10.957031 19.042969 10.976562 19.066406 10.976562 19.085938 C 10.992188 19.085938 11.011719 19.105469 11.035156 19.105469 Z M 11.035156 19.105469 " fill-opacity="1" fill-rule="nonzero"/><path fill="#143c3c" d="M 9.214844 23.230469 C 9.234375 23.230469 9.257812 23.214844 9.277344 23.214844 C 9.296875 23.195312 9.296875 23.171875 9.296875 23.152344 C 9.296875 23.132812 9.277344 23.109375 9.277344 23.089844 C 9.234375 23.046875 9.179688 23.046875 9.152344 23.089844 C 9.132812 23.109375 9.132812 23.132812 9.132812 23.152344 C 9.132812 23.171875 9.152344 23.195312 9.152344 23.214844 C 9.179688 23.230469 9.195312 23.230469 9.214844 23.230469 Z M 9.214844 23.230469 " fill-opacity="1" fill-rule="nonzero"/><path fill="#143c3c" d="M 9.683594 22.253906 C 9.664062 22.269531 9.664062 22.296875 9.664062 22.3125 C 9.664062 22.332031 9.683594 22.355469 9.683594 22.375 C 9.703125 22.394531 9.726562 22.394531 9.746094 22.394531 C 9.765625 22.394531 9.789062 22.375 9.808594 22.375 C 9.828125 22.355469 9.828125 22.332031 9.828125 22.3125 C 9.828125 22.296875 9.808594 22.269531 9.808594 22.253906 C 9.765625 22.210938 9.703125 22.210938 9.683594 22.253906 Z M 9.683594 22.253906 " fill-opacity="1" fill-rule="nonzero"/><path fill="#143c3c" d="M 10.328125 20.207031 C 10.34375 20.207031 10.371094 20.1875 10.386719 20.1875 C 10.40625 20.171875 10.40625 20.144531 10.40625 20.128906 C 10.40625 20.109375 10.386719 20.085938 10.386719 20.066406 C 10.34375 20.023438 10.308594 20.023438 10.265625 20.066406 C 10.246094 20.085938 10.246094 20.109375 10.246094 20.128906 C 10.246094 20.144531 10.246094 20.171875 10.265625 20.1875 C 10.265625 20.1875 10.289062 20.207031 10.328125 20.207031 Z M 10.328125 20.207031 " fill-opacity="1" fill-rule="nonzero"/><path fill="#143c3c" d="M 9.621094 25.914062 C 9.640625 25.933594 9.664062 25.933594 9.683594 25.933594 C 9.703125 25.933594 9.726562 25.914062 9.746094 25.914062 C 9.765625 25.894531 9.765625 25.871094 9.765625 25.851562 C 9.765625 25.835938 9.746094 25.808594 9.746094 25.792969 C 9.703125 25.75 9.648438 25.75 9.621094 25.792969 C 9.605469 25.808594 9.605469 25.835938 9.605469 25.851562 C 9.597656 25.878906 9.621094 25.894531 9.621094 25.914062 Z M 9.621094 25.914062 " fill-opacity="1" fill-rule="nonzero"/><path fill="#143c3c" d="M 10.246094 28.699219 C 10.226562 28.71875 10.226562 28.742188 10.226562 28.761719 C 10.226562 28.78125 10.226562 28.804688 10.246094 28.824219 C 10.265625 28.84375 10.289062 28.84375 10.308594 28.84375 C 10.328125 28.84375 10.351562 28.824219 10.371094 28.824219 C 10.386719 28.804688 10.386719 28.78125 10.386719 28.761719 C 10.386719 28.742188 10.371094 28.71875 10.371094 28.699219 C 10.34375 28.660156 10.289062 28.660156 10.246094 28.699219 Z M 10.246094 28.699219 " fill-opacity="1" fill-rule="nonzero"/><path fill="#143c3c" d="M 11.296875 17.964844 C 11.339844 17.964844 11.375 17.945312 11.417969 17.921875 C 11.460938 17.878906 11.460938 17.84375 11.460938 17.800781 C 11.460938 17.757812 11.445312 17.703125 11.417969 17.675781 C 11.359375 17.617188 11.242188 17.617188 11.179688 17.675781 C 11.136719 17.71875 11.136719 17.757812 11.136719 17.800781 C 11.136719 17.84375 11.152344 17.878906 11.179688 17.921875 C 11.214844 17.941406 11.257812 17.964844 11.296875 17.964844 Z M 11.296875 17.964844 " fill-opacity="1" fill-rule="nonzero"/><path fill="#143c3c" d="M 9.542969 30.582031 C 9.5 30.625 9.5 30.660156 9.5 30.703125 C 9.5 30.746094 9.515625 30.785156 9.542969 30.828125 C 9.585938 30.867188 9.621094 30.867188 9.664062 30.867188 C 9.707031 30.867188 9.746094 30.851562 9.789062 30.828125 C 9.832031 30.785156 9.832031 30.746094 9.832031 30.703125 C 9.832031 30.660156 9.8125 30.605469 9.789062 30.582031 C 9.722656 30.5 9.621094 30.5 9.542969 30.582031 Z M 9.542969 30.582031 " fill-opacity="1" fill-rule="nonzero"/><path fill="#143c3c" d="M 10.164062 21.148438 C 10.164062 21.105469 10.148438 21.070312 10.121094 21.027344 C 10.0625 20.964844 9.945312 20.964844 9.882812 21.027344 C 9.839844 21.070312 9.839844 21.105469 9.839844 21.148438 C 9.839844 21.191406 9.855469 21.230469 9.882812 21.273438 C 9.925781 21.316406 9.960938 21.316406 10.003906 21.316406 C 10.046875 21.316406 10.085938 21.296875 10.128906 21.273438 C 10.148438 21.230469 10.164062 21.1875 10.164062 21.148438 Z M 10.164062 21.148438 " fill-opacity="1" fill-rule="nonzero"/><path fill="#143c3c" d="M 10.328125 26.515625 C 10.285156 26.558594 10.285156 26.59375 10.285156 26.636719 C 10.285156 26.679688 10.300781 26.71875 10.328125 26.757812 C 10.371094 26.800781 10.40625 26.800781 10.449219 26.800781 C 10.492188 26.800781 10.53125 26.785156 10.574219 26.757812 C 10.617188 26.71875 10.617188 26.679688 10.617188 26.636719 C 10.617188 26.59375 10.597656 26.558594 10.574219 26.515625 C 10.511719 26.433594 10.386719 26.433594 10.328125 26.515625 Z M 10.328125 26.515625 " fill-opacity="1" fill-rule="nonzero"/><path fill="#143c3c" d="M 9.542969 19.164062 C 9.5 19.207031 9.5 19.246094 9.5 19.289062 C 9.5 19.332031 9.515625 19.367188 9.542969 19.410156 C 9.585938 19.429688 9.621094 19.453125 9.664062 19.453125 C 9.707031 19.453125 9.746094 19.433594 9.789062 19.410156 C 9.832031 19.367188 9.832031 19.332031 9.832031 19.289062 C 9.832031 19.246094 9.8125 19.207031 9.789062 19.164062 C 9.722656 19.105469 9.597656 19.105469 9.542969 19.164062 Z M 9.542969 19.164062 " fill-opacity="1" fill-rule="nonzero"/><path fill="#143c3c" d="M 13.699219 16.484375 C 13.742188 16.484375 13.777344 16.464844 13.820312 16.441406 C 13.863281 16.398438 13.863281 16.359375 13.863281 16.316406 C 13.863281 16.273438 13.847656 16.238281 13.820312 16.195312 C 13.761719 16.132812 13.644531 16.132812 13.582031 16.195312 C 13.539062 16.238281 13.539062 16.273438 13.539062 16.316406 C 13.539062 16.359375 13.554688 16.398438 13.582031 16.441406 C 13.617188 16.457031 13.660156 16.484375 13.699219 16.484375 Z M 13.699219 16.484375 " fill-opacity="1" fill-rule="nonzero"/><path fill="#143c3c" d="M 10.628906 22.367188 C 10.566406 22.308594 10.449219 22.308594 10.386719 22.367188 C 10.34375 22.410156 10.34375 22.449219 10.34375 22.492188 C 10.34375 22.535156 10.363281 22.570312 10.386719 22.613281 C 10.429688 22.65625 10.46875 22.65625 10.511719 22.65625 C 10.554688 22.65625 10.59375 22.636719 10.636719 22.613281 C 10.679688 22.570312 10.679688 22.535156 10.679688 22.492188 C 10.691406 22.449219 10.671875 22.410156 10.628906 22.367188 Z M 10.628906 22.367188 " fill-opacity="1" fill-rule="nonzero"/></svg>